<svg version="1.0" xmlns="http://www.w3.org/2000/svg"
 width="141.000000pt" height="600.000000pt" viewBox="0 0 141.000000 336.000000" 
 preserveAspectRatio="xMidYMid meet">

<g transform="translate(0.000000,500.000000) scale(0.100000,-0.1885000)"
fill="#000000" stroke="none">
<path d="M640 3339 c-33 -13 -594 -578 -615 -619 -20 -38 -16 -97 9 -135 39
-60 121 -96 182 -81 15 4 80 59 150 128 68 67 126 119 128 117 4 -5 16 -1635
16 -2271 l0 -478 200 0 201 0 -6 288 c-3 158 -7 782 -10 1387 l-6 1100 48 -45
c228 -217 229 -218 270 -225 116 -19 223 122 169 223 -20 36 -562 574 -606
601 -37 22 -89 26 -130 10z"/>
</g>
</svg>