<svg width="24" height="24" viewBox="0 0 24 24" fill="none" xmlns="http://www.w3.org/2000/svg" fill="#626E74">
<path d="M13.9306 11.9947L19.1391 17.3079C19.3839 17.5611 19.5041 17.891 19.4999 18.2188C19.4967 18.5497 19.3679 18.8785 19.1167 19.1254C18.8794 19.3595 18.5442 19.5 18.2089 19.5C17.8609 19.5 17.5204 19.3563 17.2798 19.1052L12.1032 13.8229L6.69673 19.1286C6.4594 19.3606 6.12522 19.5 5.7921 19.5C5.44196 19.5 5.10669 19.3606 4.86403 19.1073C4.61819 18.853 4.49687 18.5253 4.50006 18.1964C4.50325 17.8666 4.63098 17.5388 4.88108 17.2877L10.2759 11.9947L4.88108 6.70917C4.63098 6.45803 4.50325 6.12926 4.50006 5.80045C4.49687 5.47057 4.61928 5.14068 4.86726 4.88742C5.11417 4.63948 5.42702 4.50325 5.77823 4.50006C6.10709 4.49687 6.43917 4.61923 6.69247 4.86398L12.1032 10.174L17.2873 4.88529C17.5363 4.63096 17.8652 4.50325 18.1962 4.50006C18.5389 4.49687 18.872 4.63097 19.1167 4.87147C19.369 5.11834 19.4967 5.44711 19.4999 5.77805C19.5041 6.1058 19.3839 6.43569 19.1391 6.68895L13.9306 11.9947Z" />
</svg>
