<?xml version="1.0" standalone="no"?>
<!DOCTYPE svg PUBLIC "-//W3C//DTD SVG 20010904//EN"
 "http://www.w3.org/TR/2001/REC-SVG-20010904/DTD/svg10.dtd">
<svg version="1.0" xmlns="http://www.w3.org/2000/svg"
 width="484.000000pt" height="324.000000pt" viewBox="0 0 33.703 17.966"
 preserveAspectRatio="xMidYMid meet">

<g transform="matrix(0.008002, 0, 0, -0.008002, -2.379711, 20.808586)"
fill="#000000" stroke="none">
<path d="M3174 2561 c-84 -52 -116 -150 -75 -234 15 -31 113 -135 322 -342
165 -163 297 -300 294 -304 -4 -3 -737 -8 -1629 -11 -1535 -5 -1623 -6 -1649
-23 -15 -10 -41 -37 -58 -60 -28 -38 -30 -48 -27 -102 4 -71 31 -114 94 -151
l41 -24 1616 0 c890 0 1617 -4 1617 -8 0 -4 -138 -145 -306 -312 -169 -168
-312 -319 -320 -337 -46 -106 28 -235 145 -250 87 -12 91 -9 608 509 265 266
487 496 492 511 16 42 13 114 -5 150 -17 32 -885 911 -958 970 -34 27 -49 32
-105 35 -52 2 -73 -1 -97 -17z"/>
</g>
</svg>
