<svg width="24" height="24" viewBox="0 0 16 16" fill="none" xmlns="http://www.w3.org/2000/svg">
    <path d="M12.1142 14.0327C7.60937 14.0327 7.96548 14.0327 3.46142 14.0327V4.05246H12.1142V14.0327ZM9.17379 6.47607C9.17379 6.19871 9.39761 5.97389 9.67373 5.97389C9.94985 5.97389 10.1729 6.19871 10.1729 6.47607V11.6547C10.1729 11.9321 9.94985 12.1561 9.67373 12.1561C9.39761 12.1561 9.17379 11.9321 9.17379 11.6547V6.47607ZM5.72267 6.58117C5.72267 6.30381 5.94649 6.07899 6.22261 6.07899C6.49796 6.07899 6.72176 6.30381 6.72176 6.58117V11.7598C6.72176 12.0371 6.49796 12.262 6.22261 12.262C5.94649 12.262 5.72267 12.0371 5.72267 11.7598V6.58117ZM7.9478 1.96034C8.82307 1.96034 9.58141 2.2825 9.95829 3.09216H5.93802C6.31489 2.2825 7.07252 1.96034 7.9478 1.96034ZM13.7171 3.09216H10.9667C10.509 1.83517 9.33147 1 7.9478 1C6.56489 1 5.38656 1.83517 4.92969 3.09216H1.98071C1.71536 3.09216 1.5 3.30926 1.5 3.57194C1.5 3.84157 1.71536 4.05246 1.98071 4.05246H2.5V14.0327C2.5 14.5658 2.92995 15 3.46142 15H12.1142C12.6457 15 13.0756 14.5658 13.0756 14.0327V4.05246H13.7171C13.9824 4.05246 14.1978 3.84157 14.1978 3.57194C14.1978 3.30926 13.9824 3.09216 13.7171 3.09216Z" fill="#626E74" stroke="#626E74" stroke-width="0.3"/>
</svg>
