<?xml version="1.0" encoding="UTF-8"?>
<!DOCTYPE svg PUBLIC "-//W3C//DTD SVG 1.1//EN" "http://www.w3.org/Graphics/SVG/1.1/DTD/svg11.dtd">
<svg xmlns="http://www.w3.org/2000/svg" version="1.1" width="500px" height="500px" style="shape-rendering:geometricPrecision; text-rendering:geometricPrecision; image-rendering:optimizeQuality; fill-rule:evenodd; clip-rule:evenodd" xmlns:xlink="http://www.w3.org/1999/xlink">
<g transform="translate(0.000000,500.000000) scale(0.100000,-0.100000)"><path style="opacity:1" fill="#fefefe" d="M -0.5,-0.5 C 166.167,-0.5 332.833,-0.5 499.5,-0.5C 499.5,166.167 499.5,332.833 499.5,499.5C 332.833,499.5 166.167,499.5 -0.5,499.5C -0.5,332.833 -0.5,166.167 -0.5,-0.5 Z"/></g>
<g transform="translate(0.000000,500.000000) scale(0.100000,-0.100000)"><path style="opacity:1" fill="#020202" d="M 272.5,193.5 C 285.837,193.667 299.171,193.5 312.5,193C 311.956,192.283 311.289,191.783 310.5,191.5C 301.869,182.368 293.036,173.368 284,164.5C 276.843,154.271 278.343,145.438 288.5,138C 294.307,134.683 299.974,135.017 305.5,139C 324.971,159.472 344.805,179.638 365,199.5C 370.899,206.467 370.899,213.467 365,220.5C 344.471,240.695 324.305,261.195 304.5,282C 299.167,285.333 293.833,285.333 288.5,282C 286,279.5 283.5,277 281,274.5C 279.543,270.259 279.209,265.926 280,261.5C 289.768,249.73 300.268,238.563 311.5,228C 294.471,227.144 277.471,227.477 260.5,229C 230.048,238.116 209.215,257.616 198,287.5C 190.145,308.143 187.312,329.476 189.5,351.5C 178.167,351.5 166.833,351.5 155.5,351.5C 152.498,310.978 162.331,273.978 185,240.5C 207.031,211.654 236.198,195.987 272.5,193.5 Z"/></g>
<g transform="translate(0.000000,500.000000) scale(0.100000,-0.100000)"><path style="opacity:1" fill="#b7b7b7" d="M 310.5,191.5 C 311.289,191.783 311.956,192.283 312.5,193C 299.171,193.5 285.837,193.667 272.5,193.5C 285.167,192.833 297.833,192.167 310.5,191.5 Z"/></g>
</svg>
