<?xml version="1.0" encoding="UTF-8"?>
<!DOCTYPE svg PUBLIC "-//W3C//DTD SVG 1.1//EN" "http://www.w3.org/Graphics/SVG/1.1/DTD/svg11.dtd">
<svg xmlns="http://www.w3.org/2000/svg" version="1.1" width="500px" height="500px" style="shape-rendering:geometricPrecision; text-rendering:geometricPrecision; image-rendering:optimizeQuality; fill-rule:evenodd; clip-rule:evenodd" xmlns:xlink="http://www.w3.org/1999/xlink">
<g><path style="opacity:1" fill="#fefefe" d="M -0.5,-0.5 C 166.167,-0.5 332.833,-0.5 499.5,-0.5C 499.5,166.167 499.5,332.833 499.5,499.5C 332.833,499.5 166.167,499.5 -0.5,499.5C -0.5,332.833 -0.5,166.167 -0.5,-0.5 Z"/></g>
<g><path style="opacity:1" fill="#afafaf" d="M 325.5,142.5 C 329.286,142.32 332.619,143.32 335.5,145.5C 334.167,145.5 332.833,145.5 331.5,145.5C 331.167,145.5 330.833,145.5 330.5,145.5C 328.739,144.687 327.072,143.687 325.5,142.5 Z"/></g>
<g><path style="opacity:1" fill="#818181" d="M 284.5,142.5 C 282.491,144.065 280.157,145.065 277.5,145.5C 279.09,143.179 281.423,142.179 284.5,142.5 Z"/></g>
<g><path style="opacity:1" fill="#040404" d="M 313.5,142.5 C 319.06,143.422 324.727,144.422 330.5,145.5C 330.833,145.5 331.167,145.5 331.5,145.5C 334.868,147.46 338.534,149.126 342.5,150.5C 343.167,150.5 343.833,150.5 344.5,150.5C 344.414,151.496 344.748,152.329 345.5,153C 348.336,153.921 351.002,155.088 353.5,156.5C 356.167,158.5 358.833,160.5 361.5,162.5C 361.5,164.5 362.5,165.5 364.5,165.5C 365.241,167.354 366.241,169.021 367.5,170.5C 367.427,172.027 368.094,173.027 369.5,173.5C 370.338,173.842 370.672,174.508 370.5,175.5C 370.092,178.599 371.259,180.933 374,182.5C 374.774,186.367 376.274,189.7 378.5,192.5C 378.5,199.167 378.5,205.833 378.5,212.5C 378.5,214.5 378.5,216.5 378.5,218.5C 376.518,220.597 375.518,223.264 375.5,226.5C 374.094,226.973 373.427,227.973 373.5,229.5C 371.229,231.612 369.896,234.279 369.5,237.5C 368.449,238.222 367.782,239.222 367.5,240.5C 365.5,240.5 364.5,241.5 364.5,243.5C 363.833,244.833 362.833,245.833 361.5,246.5C 360.167,246.5 359.5,247.167 359.5,248.5C 358.833,248.5 358.5,248.833 358.5,249.5C 356.067,249.273 354.401,250.273 353.5,252.5C 352.9,253.9 351.9,254.9 350.5,255.5C 344.903,257.365 339.237,259.032 333.5,260.5C 325.83,261.809 318.164,262.809 310.5,263.5C 307.833,263.5 305.167,263.5 302.5,263.5C 299.5,263.5 296.5,263.5 293.5,263.5C 286.087,262.872 279.087,263.539 272.5,265.5C 272.5,290.167 272.5,314.833 272.5,339.5C 263.833,339.5 255.167,339.5 246.5,339.5C 246.046,314.667 245.379,290.001 244.5,265.5C 244.167,265.5 243.833,265.5 243.5,265.5C 217.672,264.397 191.672,263.73 165.5,263.5C 165.273,265.933 166.273,267.599 168.5,268.5C 168.5,270.5 169.5,271.5 171.5,271.5C 172.833,273.5 174.5,275.167 176.5,276.5C 177.256,279.394 178.923,281.394 181.5,282.5C 182.167,282.5 182.5,282.833 182.5,283.5C 182.5,284.833 183.167,285.5 184.5,285.5C 185.167,285.5 185.5,285.833 185.5,286.5C 185.5,287.833 186.167,288.5 187.5,288.5C 188.162,292.466 188.495,296.466 188.5,300.5C 188.672,301.492 188.338,302.158 187.5,302.5C 185.856,302.81 184.856,303.81 184.5,305.5C 179.866,306.557 175.2,306.557 170.5,305.5C 170.19,303.856 169.19,302.856 167.5,302.5C 165.954,300.103 163.954,298.103 161.5,296.5C 161.5,295.167 160.833,294.5 159.5,294.5C 159.106,292.29 157.773,290.957 155.5,290.5C 154.662,290.158 154.328,289.492 154.5,288.5C 154.5,286.5 153.5,285.5 151.5,285.5C 151.179,283.952 150.179,283.285 148.5,283.5C 148.912,281.027 147.912,279.694 145.5,279.5C 144.216,276.883 142.216,274.883 139.5,273.5C 139.5,272.167 138.833,271.5 137.5,271.5C 133.448,266.789 129.448,262.122 125.5,257.5C 124.532,254.555 124.366,251.555 125,248.5C 126.61,246.008 127.776,243.341 128.5,240.5C 128.5,239.833 128.5,239.167 128.5,238.5C 131.216,237.117 133.216,235.117 134.5,232.5C 136.5,232.5 137.5,231.5 137.5,229.5C 138.167,229.5 138.833,229.5 139.5,229.5C 142.419,226.616 145.085,223.616 147.5,220.5C 148.338,220.158 148.672,219.492 148.5,218.5C 150.144,218.19 151.144,217.19 151.5,215.5C 153.5,215.5 154.5,214.5 154.5,212.5C 156.5,211.167 158.167,209.5 159.5,207.5C 161.19,207.144 162.19,206.144 162.5,204.5C 162.833,203.833 163.167,203.167 163.5,202.5C 164.833,202.167 166.167,201.833 167.5,201.5C 169.633,199.909 171.299,197.909 172.5,195.5C 172.833,195.5 173.167,195.5 173.5,195.5C 176.465,194.266 179.465,194.266 182.5,195.5C 183.899,196.89 185.566,197.89 187.5,198.5C 188.167,199.5 188.833,200.5 189.5,201.5C 189.677,205.234 189.344,208.901 188.5,212.5C 186.636,215.55 184.303,218.217 181.5,220.5C 179.251,221.08 177.585,222.413 176.5,224.5C 176.5,225.167 176.5,225.833 176.5,226.5C 174.5,226.5 173.5,227.5 173.5,229.5C 171.5,230.833 169.833,232.5 168.5,234.5C 168.167,234.5 167.833,234.5 167.5,234.5C 165.896,235.287 165.229,236.62 165.5,238.5C 177.5,238.5 189.5,238.5 201.5,238.5C 215.323,239.496 229.323,239.829 243.5,239.5C 243.218,220.473 243.551,201.473 244.5,182.5C 244.5,182.167 244.5,181.833 244.5,181.5C 246.213,180.365 246.88,178.698 246.5,176.5C 246.5,176.167 246.5,175.833 246.5,175.5C 248.818,173.815 249.818,171.481 249.5,168.5C 251.532,167.952 252.532,166.619 252.5,164.5C 253.833,164.5 254.5,163.833 254.5,162.5C 257.378,161.438 259.378,159.438 260.5,156.5C 261.3,154.427 262.633,152.76 264.5,151.5C 266.848,151.408 268.514,150.408 269.5,148.5C 270.167,148.5 270.833,148.5 271.5,148.5C 273.848,148.408 275.514,147.408 276.5,145.5C 276.833,145.5 277.167,145.5 277.5,145.5C 280.157,145.065 282.491,144.065 284.5,142.5C 294.314,141.261 303.981,141.261 313.5,142.5 Z"/></g>
<g><path style="opacity:1" fill="#3c3c3c" d="M 313.5,142.5 C 317.5,142.5 321.5,142.5 325.5,142.5C 327.072,143.687 328.739,144.687 330.5,145.5C 324.727,144.422 319.06,143.422 313.5,142.5 Z"/></g>
<g><path style="opacity:1" fill="#b5b5b5" d="M 274.5,145.5 C 273.306,146.272 272.306,147.272 271.5,148.5C 270.833,148.5 270.167,148.5 269.5,148.5C 270.3,146.259 271.966,145.259 274.5,145.5 Z"/></g>
<g><path style="opacity:1" fill="#575757" d="M 274.5,145.5 C 275.167,145.5 275.833,145.5 276.5,145.5C 275.514,147.408 273.848,148.408 271.5,148.5C 272.306,147.272 273.306,146.272 274.5,145.5 Z"/></g>
<g><path style="opacity:1" fill="#aeaeae" d="M 336.5,145.5 C 338.544,146.508 340.544,147.508 342.5,148.5C 339.687,148.975 337.687,147.975 336.5,145.5 Z"/></g>
<g><path style="opacity:1" fill="#2c2c2c" d="M 331.5,145.5 C 332.833,145.5 334.167,145.5 335.5,145.5C 335.833,145.5 336.167,145.5 336.5,145.5C 337.687,147.975 339.687,148.975 342.5,148.5C 342.5,149.167 342.5,149.833 342.5,150.5C 338.534,149.126 334.868,147.46 331.5,145.5 Z"/></g>
<g><path style="opacity:1" fill="#b0b0b0" d="M 269.5,148.5 C 268.514,150.408 266.848,151.408 264.5,151.5C 265.3,149.259 266.966,148.259 269.5,148.5 Z"/></g>
<g><path style="opacity:1" fill="#a6a6a6" d="M 342.5,148.5 C 344.674,148.75 346.341,149.75 347.5,151.5C 346.391,151.443 345.391,151.11 344.5,150.5C 343.833,150.5 343.167,150.5 342.5,150.5C 342.5,149.833 342.5,149.167 342.5,148.5 Z"/></g>
<g><path style="opacity:1" fill="#585858" d="M 344.5,150.5 C 345.391,151.11 346.391,151.443 347.5,151.5C 350.059,152.47 352.059,154.137 353.5,156.5C 351.002,155.088 348.336,153.921 345.5,153C 344.748,152.329 344.414,151.496 344.5,150.5 Z"/></g>
<g><path style="opacity:1" fill="#474747" d="M 260.5,156.5 C 259.378,159.438 257.378,161.438 254.5,162.5C 255.956,160.716 256.956,158.716 257.5,156.5C 258.5,156.5 259.5,156.5 260.5,156.5 Z"/></g>
<g><path style="opacity:1" fill="#6c6c6c" d="M 254.5,162.5 C 254.5,163.833 253.833,164.5 252.5,164.5C 252.5,163.167 253.167,162.5 254.5,162.5 Z"/></g>
<g><path style="opacity:1" fill="#949494" d="M 361.5,162.5 C 363.144,162.81 364.144,163.81 364.5,165.5C 362.5,165.5 361.5,164.5 361.5,162.5 Z"/></g>
<g><path style="opacity:1" fill="#888888" d="M 252.5,164.5 C 252.532,166.619 251.532,167.952 249.5,168.5C 249.468,166.381 250.468,165.048 252.5,164.5 Z"/></g>
<g><path style="opacity:1" fill="#9f9f9f" d="M 302.5,168.5 C 310.243,167.87 317.576,168.537 324.5,170.5C 323.167,170.5 321.833,170.5 320.5,170.5C 312.67,169.705 304.67,169.705 296.5,170.5C 298.5,169.833 300.5,169.167 302.5,168.5 Z"/></g>
<g><path style="opacity:1" fill="#6f6f6f" d="M 302.5,168.5 C 300.5,169.167 298.5,169.833 296.5,170.5C 294.167,170.5 291.833,170.5 289.5,170.5C 289.611,169.883 289.944,169.383 290.5,169C 294.486,168.501 298.486,168.334 302.5,168.5 Z"/></g>
<g><path style="opacity:1" fill="#fdfdfd" d="M 320.5,170.5 C 321.833,170.5 323.167,170.5 324.5,170.5C 324.833,170.5 325.167,170.5 325.5,170.5C 328.761,173.112 332.427,175.112 336.5,176.5C 336.539,177.583 336.873,178.583 337.5,179.5C 339.893,181.249 342.226,182.915 344.5,184.5C 346.19,184.856 347.19,185.856 347.5,187.5C 347.75,189.674 348.75,191.341 350.5,192.5C 350.5,192.833 350.5,193.167 350.5,193.5C 351.418,199.775 351.751,206.108 351.5,212.5C 351.567,213.959 351.234,215.292 350.5,216.5C 348.643,218.282 347.643,220.615 347.5,223.5C 346.504,223.414 345.671,223.748 345,224.5C 344.215,226.249 343.382,227.916 342.5,229.5C 342.167,229.5 341.833,229.5 341.5,229.5C 340.167,229.5 339.5,230.167 339.5,231.5C 338.391,231.557 337.391,231.89 336.5,232.5C 334.219,232.077 332.552,232.744 331.5,234.5C 331.5,234.833 331.5,235.167 331.5,235.5C 331.167,235.5 330.833,235.5 330.5,235.5C 328.833,235.5 327.167,235.5 325.5,235.5C 308.167,235.5 290.833,235.5 273.5,235.5C 273.283,229.64 272.617,223.973 271.5,218.5C 271.5,208.833 271.5,199.167 271.5,189.5C 274.254,186.331 276.254,182.664 277.5,178.5C 277.328,177.508 277.662,176.842 278.5,176.5C 280.332,175.752 281.999,174.752 283.5,173.5C 295.854,172.758 308.188,171.758 320.5,170.5 Z"/></g>
<g><path style="opacity:1" fill="#767676" d="M 325.5,170.5 C 330.485,170.306 334.151,172.306 336.5,176.5C 332.427,175.112 328.761,173.112 325.5,170.5 Z"/></g>
<g><path style="opacity:1" fill="#7e7e7e" d="M 249.5,168.5 C 249.818,171.481 248.818,173.815 246.5,175.5C 246.182,172.519 247.182,170.185 249.5,168.5 Z"/></g>
<g><path style="opacity:1" fill="#535353" d="M 287.5,170.5 C 286.167,171.5 284.833,172.5 283.5,173.5C 281.999,174.752 280.332,175.752 278.5,176.5C 278.511,174.983 279.177,173.816 280.5,173C 282.441,171.097 284.774,170.264 287.5,170.5 Z"/></g>
<g><path style="opacity:1" fill="#e2e2e2" d="M 320.5,170.5 C 308.188,171.758 295.854,172.758 283.5,173.5C 284.833,172.5 286.167,171.5 287.5,170.5C 288.167,170.5 288.833,170.5 289.5,170.5C 291.833,170.5 294.167,170.5 296.5,170.5C 304.67,169.705 312.67,169.705 320.5,170.5 Z"/></g>
<g><path style="opacity:1" fill="#606060" d="M 367.5,170.5 C 369.048,170.821 369.715,171.821 369.5,173.5C 368.094,173.027 367.427,172.027 367.5,170.5 Z"/></g>
<g><path style="opacity:1" fill="#b6b6b6" d="M 336.5,176.5 C 340.824,177.491 343.491,180.157 344.5,184.5C 342.226,182.915 339.893,181.249 337.5,179.5C 336.873,178.583 336.539,177.583 336.5,176.5 Z"/></g>
<g><path style="opacity:1" fill="#5d5d5d" d="M 246.5,176.5 C 246.88,178.698 246.213,180.365 244.5,181.5C 244.077,179.219 244.744,177.552 246.5,176.5 Z"/></g>
<g><path style="opacity:1" fill="#b0b0b0" d="M 277.5,178.5 C 276.254,182.664 274.254,186.331 271.5,189.5C 271.178,184.472 273.178,180.805 277.5,178.5 Z"/></g>
<g><path style="opacity:1" fill="#454545" d="M 370.5,175.5 C 373.841,178.84 376.174,182.84 377.5,187.5C 377.629,189.216 377.962,190.883 378.5,192.5C 376.274,189.7 374.774,186.367 374,182.5C 371.259,180.933 370.092,178.599 370.5,175.5 Z"/></g>
<g><path style="opacity:1" fill="#818181" d="M 347.5,187.5 C 349.408,188.486 350.408,190.152 350.5,192.5C 348.75,191.341 347.75,189.674 347.5,187.5 Z"/></g>
<g><path style="opacity:1" fill="#484848" d="M 182.5,195.5 C 179.465,194.266 176.465,194.266 173.5,195.5C 174.514,194.235 176.014,193.569 178,193.5C 179.986,193.569 181.486,194.235 182.5,195.5 Z"/></g>
<g><path style="opacity:1" fill="#656565" d="M 182.5,195.5 C 185.034,195.259 186.7,196.259 187.5,198.5C 185.566,197.89 183.899,196.89 182.5,195.5 Z"/></g>
<g><path style="opacity:1" fill="#7a7a7a" d="M 244.5,182.5 C 243.551,201.473 243.218,220.473 243.5,239.5C 229.323,239.829 215.323,239.496 201.5,238.5C 201.833,238.5 202.167,238.5 202.5,238.5C 215.833,238.5 229.167,238.5 242.5,238.5C 242.333,220.497 242.5,202.497 243,184.5C 243.278,183.584 243.778,182.918 244.5,182.5 Z"/></g>
<g><path style="opacity:1" fill="#3e3e3e" d="M 172.5,195.5 C 171.299,197.909 169.633,199.909 167.5,201.5C 167.557,200.391 167.89,199.391 168.5,198.5C 169.035,196.554 170.368,195.554 172.5,195.5 Z"/></g>
<g><path style="opacity:1" fill="#b8b8b8" d="M 168.5,198.5 C 167.89,199.391 167.557,200.391 167.5,201.5C 166.167,201.833 164.833,202.167 163.5,202.5C 164.129,200.003 165.796,198.67 168.5,198.5 Z"/></g>
<g><path style="opacity:1" fill="#9f9f9f" d="M 350.5,193.5 C 351.725,194.152 352.392,195.319 352.5,197C 353.264,201.47 353.597,205.97 353.5,210.5C 352.833,211.167 352.167,211.833 351.5,212.5C 351.751,206.108 351.418,199.775 350.5,193.5 Z"/></g>
<g><path style="opacity:1" fill="#a2a2a2" d="M 377.5,187.5 C 378.151,188.091 378.818,188.757 379.5,189.5C 379.833,193.333 380.167,197.167 380.5,201C 380.49,205.229 379.823,209.062 378.5,212.5C 378.5,205.833 378.5,199.167 378.5,192.5C 377.962,190.883 377.629,189.216 377.5,187.5 Z"/></g>
<g><path style="opacity:1" fill="#515151" d="M 189.5,201.5 C 190.167,201.5 190.5,201.833 190.5,202.5C 190.5,205.5 190.5,208.5 190.5,211.5C 190.158,212.338 189.492,212.672 188.5,212.5C 189.344,208.901 189.677,205.234 189.5,201.5 Z"/></g>
<g><path style="opacity:1" fill="#9c9c9c" d="M 162.5,204.5 C 162.19,206.144 161.19,207.144 159.5,207.5C 159.5,205.5 160.5,204.5 162.5,204.5 Z"/></g>
<g><path style="opacity:1" fill="#c6c6c6" d="M 159.5,207.5 C 158.167,209.5 156.5,211.167 154.5,212.5C 153.833,208.5 155.5,206.833 159.5,207.5 Z"/></g>
<g><path style="opacity:1" fill="#c5c5c5" d="M 190.5,202.5 C 192.026,203.492 192.693,204.992 192.5,207C 192.693,209.008 192.026,210.508 190.5,211.5C 190.5,208.5 190.5,205.5 190.5,202.5 Z"/></g>
<g><path style="opacity:1" fill="#9b9b9b" d="M 154.5,212.5 C 154.5,214.5 153.5,215.5 151.5,215.5C 151.81,213.856 152.81,212.856 154.5,212.5 Z"/></g>
<g><path style="opacity:1" fill="#4d4d4d" d="M 353.5,210.5 C 354.092,213.631 353.092,215.964 350.5,217.5C 350.5,217.167 350.5,216.833 350.5,216.5C 351.234,215.292 351.567,213.959 351.5,212.5C 352.167,211.833 352.833,211.167 353.5,210.5 Z"/></g>
<g><path style="opacity:1" fill="#929292" d="M 151.5,215.5 C 151.144,217.19 150.144,218.19 148.5,218.5C 148.856,216.81 149.856,215.81 151.5,215.5 Z"/></g>
<g><path style="opacity:1" fill="#9f9f9f" d="M 350.5,216.5 C 350.5,216.833 350.5,217.167 350.5,217.5C 350.539,220.089 349.539,222.089 347.5,223.5C 347.643,220.615 348.643,218.282 350.5,216.5 Z"/></g>
<g><path style="opacity:1" fill="#6c6c6c" d="M 181.5,220.5 C 180.871,222.997 179.204,224.33 176.5,224.5C 177.585,222.413 179.251,221.08 181.5,220.5 Z"/></g>
<g><path style="opacity:1" fill="#767676" d="M 147.5,220.5 C 145.085,223.616 142.419,226.616 139.5,229.5C 140.717,225.222 143.383,222.222 147.5,220.5 Z"/></g>
<g><path style="opacity:1" fill="#989898" d="M 378.5,218.5 C 378.339,221.68 377.339,224.347 375.5,226.5C 375.518,223.264 376.518,220.597 378.5,218.5 Z"/></g>
<g><path style="opacity:1" fill="#575757" d="M 347.5,223.5 C 346.946,226.391 345.279,228.391 342.5,229.5C 343.382,227.916 344.215,226.249 345,224.5C 345.671,223.748 346.504,223.414 347.5,223.5 Z"/></g>
<g><path style="opacity:1" fill="#8b8b8b" d="M 176.5,226.5 C 175.833,227.833 174.833,228.833 173.5,229.5C 173.5,227.5 174.5,226.5 176.5,226.5 Z"/></g>
<g><path style="opacity:1" fill="#c8c8c8" d="M 271.5,218.5 C 272.617,223.973 273.283,229.64 273.5,235.5C 290.833,235.5 308.167,235.5 325.5,235.5C 318.167,236.167 310.833,236.833 303.5,237.5C 292.915,238.476 282.248,238.809 271.5,238.5C 271.5,231.833 271.5,225.167 271.5,218.5 Z"/></g>
<g><path style="opacity:1" fill="#646464" d="M 375.5,226.5 C 375.715,228.179 375.048,229.179 373.5,229.5C 373.427,227.973 374.094,226.973 375.5,226.5 Z"/></g>
<g><path style="opacity:1" fill="#585858" d="M 341.5,229.5 C 341.5,230.833 340.833,231.5 339.5,231.5C 339.5,230.167 340.167,229.5 341.5,229.5 Z"/></g>
<g><path style="opacity:1" fill="#9a9a9a" d="M 137.5,229.5 C 137.5,231.5 136.5,232.5 134.5,232.5C 135.167,231.167 136.167,230.167 137.5,229.5 Z"/></g>
<g><path style="opacity:1" fill="#b6b6b6" d="M 336.5,232.5 C 335.22,233.931 333.553,234.598 331.5,234.5C 332.552,232.744 334.219,232.077 336.5,232.5 Z"/></g>
<g><path style="opacity:1" fill="#646464" d="M 373.5,229.5 C 373.167,231.5 372.833,233.5 372.5,235.5C 371.5,236.167 370.5,236.833 369.5,237.5C 369.896,234.279 371.229,231.612 373.5,229.5 Z"/></g>
<g><path style="opacity:1" fill="#454545" d="M 339.5,231.5 C 337.685,234.407 335.019,235.741 331.5,235.5C 331.5,235.167 331.5,234.833 331.5,234.5C 333.553,234.598 335.22,233.931 336.5,232.5C 337.391,231.89 338.391,231.557 339.5,231.5 Z"/></g>
<g><path style="opacity:1" fill="#bebebe" d="M 167.5,234.5 C 167.833,234.5 168.167,234.5 168.5,234.5C 179.833,235.833 191.167,237.167 202.5,238.5C 202.167,238.5 201.833,238.5 201.5,238.5C 190.346,237.505 179.012,237.172 167.5,237.5C 167.5,236.5 167.5,235.5 167.5,234.5 Z"/></g>
<g><path style="opacity:1" fill="#919191" d="M 325.5,235.5 C 327.167,235.5 328.833,235.5 330.5,235.5C 330.082,236.222 329.416,236.722 328.5,237C 320.173,237.5 311.84,237.666 303.5,237.5C 310.833,236.833 318.167,236.167 325.5,235.5 Z"/></g>
<g><path style="opacity:1" fill="#5b5b5b" d="M 167.5,234.5 C 167.5,235.5 167.5,236.5 167.5,237.5C 179.012,237.172 190.346,237.505 201.5,238.5C 189.5,238.5 177.5,238.5 165.5,238.5C 165.229,236.62 165.896,235.287 167.5,234.5 Z"/></g>
<g><path style="opacity:1" fill="#b1b1b1" d="M 128.5,238.5 C 128.5,239.167 128.5,239.833 128.5,240.5C 127.147,242.183 125.48,243.516 123.5,244.5C 124.473,241.865 126.14,239.865 128.5,238.5 Z"/></g>
<g><path style="opacity:1" fill="#606060" d="M 367.5,240.5 C 366.833,241.833 365.833,242.833 364.5,243.5C 364.5,241.5 365.5,240.5 367.5,240.5 Z"/></g>
<g><path style="opacity:1" fill="#5e5e5e" d="M 361.5,246.5 C 361.5,247.833 360.833,248.5 359.5,248.5C 359.5,247.167 360.167,246.5 361.5,246.5 Z"/></g>
<g><path style="opacity:1" fill="#393939" d="M 128.5,240.5 C 127.776,243.341 126.61,246.008 125,248.5C 124.366,251.555 124.532,254.555 125.5,257.5C 123.952,257.179 123.285,256.179 123.5,254.5C 123.5,251.833 123.5,249.167 123.5,246.5C 123.5,245.833 123.5,245.167 123.5,244.5C 125.48,243.516 127.147,242.183 128.5,240.5 Z"/></g>
<g><path style="opacity:1" fill="#9e9e9e" d="M 123.5,246.5 C 123.5,249.167 123.5,251.833 123.5,254.5C 120.833,251.833 120.833,249.167 123.5,246.5 Z"/></g>
<g><path style="opacity:1" fill="#d6d6d6" d="M 372.5,235.5 C 371.585,237.928 370.418,240.261 369,242.5C 365.5,244.667 362.667,247.5 360.5,251C 359.552,251.483 358.552,251.649 357.5,251.5C 357.833,250.833 358.167,250.167 358.5,249.5C 358.5,248.833 358.833,248.5 359.5,248.5C 360.833,248.5 361.5,247.833 361.5,246.5C 362.833,245.833 363.833,244.833 364.5,243.5C 365.833,242.833 366.833,241.833 367.5,240.5C 367.782,239.222 368.449,238.222 369.5,237.5C 370.5,236.833 371.5,236.167 372.5,235.5 Z"/></g>
<g><path style="opacity:1" fill="#565656" d="M 358.5,249.5 C 358.167,250.167 357.833,250.833 357.5,251.5C 356.167,251.833 354.833,252.167 353.5,252.5C 354.401,250.273 356.067,249.273 358.5,249.5 Z"/></g>
<g><path style="opacity:1" fill="#757575" d="M 350.5,255.5 C 344.475,259.399 337.808,261.732 330.5,262.5C 331.5,261.833 332.5,261.167 333.5,260.5C 339.237,259.032 344.903,257.365 350.5,255.5 Z"/></g>
<g><path style="opacity:1" fill="#353535" d="M 333.5,260.5 C 332.5,261.167 331.5,261.833 330.5,262.5C 330.5,262.833 330.5,263.167 330.5,263.5C 323.833,263.5 317.167,263.5 310.5,263.5C 318.164,262.809 325.83,261.809 333.5,260.5 Z"/></g>
<g><path style="opacity:1" fill="#3f3f3f" d="M 243.5,265.5 C 218.164,265.333 192.831,265.5 167.5,266C 168.252,266.671 168.586,267.504 168.5,268.5C 166.273,267.599 165.273,265.933 165.5,263.5C 191.672,263.73 217.672,264.397 243.5,265.5 Z"/></g>
<g><path style="opacity:1" fill="#616161" d="M 293.5,263.5 C 289.833,264.167 286.167,264.833 282.5,265.5C 279.833,265.5 277.167,265.5 274.5,265.5C 273.833,265.5 273.167,265.5 272.5,265.5C 279.087,263.539 286.087,262.872 293.5,263.5 Z"/></g>
<g><path style="opacity:1" fill="#a1a1a1" d="M 293.5,263.5 C 296.5,263.5 299.5,263.5 302.5,263.5C 296.25,265.459 289.584,266.126 282.5,265.5C 286.167,264.833 289.833,264.167 293.5,263.5 Z"/></g>
<g><path style="opacity:1" fill="#e6e6e6" d="M 302.5,263.5 C 305.167,263.5 307.833,263.5 310.5,263.5C 317.167,263.5 323.833,263.5 330.5,263.5C 312.109,266.155 293.443,267.155 274.5,266.5C 274.5,266.167 274.5,265.833 274.5,265.5C 277.167,265.5 279.833,265.5 282.5,265.5C 289.584,266.126 296.25,265.459 302.5,263.5 Z"/></g>
<g><path style="opacity:1" fill="#666666" d="M 168.5,268.5 C 169.167,268.5 169.833,268.5 170.5,268.5C 170.557,269.609 170.89,270.609 171.5,271.5C 169.5,271.5 168.5,270.5 168.5,268.5 Z"/></g>
<g><path style="opacity:1" fill="#959595" d="M 137.5,271.5 C 138.833,271.5 139.5,272.167 139.5,273.5C 138.167,273.5 137.5,272.833 137.5,271.5 Z"/></g>
<g><path style="opacity:1" fill="#909090" d="M 171.5,271.5 C 174.5,271.833 176.167,273.5 176.5,276.5C 176.167,273.5 174.5,271.833 171.5,271.5 Z"/></g>
<g><path style="opacity:1" fill="#a7a7a7" d="M 139.5,273.5 C 142.216,274.883 144.216,276.883 145.5,279.5C 142.192,278.935 140.192,276.935 139.5,273.5 Z"/></g>
<g><path style="opacity:1" fill="#535353" d="M 176.5,276.5 C 177.496,276.414 178.329,276.748 179,277.5C 179.785,279.249 180.618,280.916 181.5,282.5C 178.923,281.394 177.256,279.394 176.5,276.5 Z"/></g>
<g><path style="opacity:1" fill="#979797" d="M 145.5,279.5 C 147.912,279.694 148.912,281.027 148.5,283.5C 150.179,283.285 151.179,283.952 151.5,285.5C 148.2,284.971 146.2,282.971 145.5,279.5 Z"/></g>
<g><path style="opacity:1" fill="#585858" d="M 182.5,283.5 C 183.833,283.5 184.5,284.167 184.5,285.5C 184.5,284.167 183.833,283.5 182.5,283.5 Z"/></g>
<g><path style="opacity:1" fill="#6a6a6a" d="M 151.5,285.5 C 153.5,285.5 154.5,286.5 154.5,288.5C 153.5,288.5 152.5,288.5 151.5,288.5C 151.5,287.5 151.5,286.5 151.5,285.5 Z"/></g>
<g><path style="opacity:1" fill="#6d6d6d" d="M 185.5,286.5 C 186.833,286.5 187.5,287.167 187.5,288.5C 187.5,287.167 186.833,286.5 185.5,286.5 Z"/></g>
<g><path style="opacity:1" fill="#929292" d="M 155.5,290.5 C 157.773,290.957 159.106,292.29 159.5,294.5C 157.167,294.167 155.833,292.833 155.5,290.5 Z"/></g>
<g><path style="opacity:1" fill="#474747" d="M 187.5,288.5 C 189.48,290.284 190.48,292.617 190.5,295.5C 190.444,297.64 189.777,299.306 188.5,300.5C 188.495,296.466 188.162,292.466 187.5,288.5 Z"/></g>
<g><path style="opacity:1" fill="#353535" d="M 244.5,265.5 C 245.379,290.001 246.046,314.667 246.5,339.5C 245.833,339.5 245.167,339.5 244.5,339.5C 244.5,314.833 244.5,290.167 244.5,265.5 Z"/></g>
<g><path style="opacity:1" fill="#757575" d="M 159.5,294.5 C 160.833,294.5 161.5,295.167 161.5,296.5C 160.167,296.5 159.5,295.833 159.5,294.5 Z"/></g>
<g><path style="opacity:1" fill="#a5a5a5" d="M 161.5,296.5 C 163.954,298.103 165.954,300.103 167.5,302.5C 166.167,302.5 164.833,302.5 163.5,302.5C 163.296,300.315 162.63,298.315 161.5,296.5 Z"/></g>
<g><path style="opacity:1" fill="#5a5a5a" d="M 187.5,302.5 C 187.5,304.5 186.5,305.5 184.5,305.5C 184.856,303.81 185.856,302.81 187.5,302.5 Z"/></g>
<g><path style="opacity:1" fill="#555555" d="M 167.5,302.5 C 169.19,302.856 170.19,303.856 170.5,305.5C 168.5,305.5 167.5,304.5 167.5,302.5 Z"/></g>
<g><path style="opacity:1" fill="#bfbfbf" d="M 272.5,265.5 C 273.167,265.5 273.833,265.5 274.5,265.5C 274.5,265.833 274.5,266.167 274.5,266.5C 275.157,291.19 274.49,315.523 272.5,339.5C 272.5,314.833 272.5,290.167 272.5,265.5 Z"/></g>
<g><path style="opacity:1" fill="#333333" d="M 170.5,305.5 C 175.2,306.557 179.866,306.557 184.5,305.5C 184.53,306.497 184.03,307.164 183,307.5C 179.333,308.833 175.667,308.833 172,307.5C 170.97,307.164 170.47,306.497 170.5,305.5 Z"/></g>
<g><path style="opacity:1" fill="#d8d8d8" d="M 243.5,265.5 C 243.833,265.5 244.167,265.5 244.5,265.5C 244.5,290.167 244.5,314.833 244.5,339.5C 242.546,315.522 241.546,291.189 241.5,266.5C 217.476,265.843 193.81,266.51 170.5,268.5C 169.833,268.5 169.167,268.5 168.5,268.5C 168.586,267.504 168.252,266.671 167.5,266C 192.831,265.5 218.164,265.333 243.5,265.5 Z"/></g>
</svg>
