<?xml version="1.0" encoding="UTF-8"?>
<!DOCTYPE svg PUBLIC "-//W3C//DTD SVG 1.1//EN" "http://www.w3.org/Graphics/SVG/1.1/DTD/svg11.dtd">
<svg xmlns="http://www.w3.org/2000/svg" version="1.1" width="500px" height="500px" style="shape-rendering:geometricPrecision; text-rendering:geometricPrecision; image-rendering:optimizeQuality; fill-rule:evenodd; clip-rule:evenodd" xmlns:xlink="http://www.w3.org/1999/xlink">
<g><path style="opacity:1" fill="#fefefe" d="M -0.5,-0.5 C 166.167,-0.5 332.833,-0.5 499.5,-0.5C 499.5,166.167 499.5,332.833 499.5,499.5C 420.167,499.5 340.833,499.5 261.5,499.5C 261.333,415.833 261.5,332.166 262,248.5C 262.301,240.475 262.801,232.475 263.5,224.5C 263.5,223.167 263.5,221.833 263.5,220.5C 264.693,220.03 265.36,219.03 265.5,217.5C 266.246,213.868 266.579,210.202 266.5,206.5C 267.768,204.095 268.435,201.428 268.5,198.5C 270.088,196.887 271.088,194.887 271.5,192.5C 271.5,192.167 271.5,191.833 271.5,191.5C 274.071,186.41 276.904,181.41 280,176.5C 280.49,175.207 280.657,173.873 280.5,172.5C 280.328,171.508 280.662,170.842 281.5,170.5C 284.107,169.288 285.774,167.288 286.5,164.5C 286.5,163.833 286.5,163.167 286.5,162.5C 289.535,160.299 292.035,157.632 294,154.5C 294.608,152.846 295.108,151.179 295.5,149.5C 300.533,144.468 305.199,139.135 309.5,133.5C 311.144,133.19 312.144,132.19 312.5,130.5C 312.856,128.81 313.856,127.81 315.5,127.5C 319.861,125.139 323.194,121.806 325.5,117.5C 326.167,117.167 326.833,116.833 327.5,116.5C 329.754,115.585 331.754,114.252 333.5,112.5C 334.167,120.657 334.833,128.657 335.5,136.5C 335.328,137.492 335.662,138.158 336.5,138.5C 337.272,139.694 338.272,140.694 339.5,141.5C 339.611,142.117 339.944,142.617 340.5,143C 344.027,143.808 347.36,143.641 350.5,142.5C 351.167,141.167 352.167,140.167 353.5,139.5C 354.458,139.047 355.292,138.381 356,137.5C 356.829,118.329 356.662,99.3289 355.5,80.5C 355.167,80.5 354.833,80.5 354.5,80.5C 353.5,78.8333 352.167,77.5 350.5,76.5C 349.737,75.7321 348.737,75.2321 347.5,75C 342.511,74.5007 337.511,74.3341 332.5,74.5C 319.377,72.5292 306.044,71.6959 292.5,72C 291.244,72.4169 290.577,73.2502 290.5,74.5C 289.21,75.0577 288.377,76.0577 288,77.5C 286.311,83.3453 287.811,88.012 292.5,91.5C 300.65,93.0968 308.984,94.4301 317.5,95.5C 316.5,96.8333 315.5,98.1667 314.5,99.5C 310.728,102.094 307.061,104.927 303.5,108C 301.915,110.069 300.581,112.236 299.5,114.5C 295.5,117.833 291.833,121.5 288.5,125.5C 284.7,127.963 282.033,131.296 280.5,135.5C 277.41,137.268 275.41,139.935 274.5,143.5C 272.554,144.035 271.554,145.368 271.5,147.5C 270.094,147.973 269.427,148.973 269.5,150.5C 268.833,151.167 268.167,151.833 267.5,152.5C 266.069,153.78 265.402,155.447 265.5,157.5C 264.833,157.5 264.5,157.833 264.5,158.5C 261.402,162.358 259.069,166.692 257.5,171.5C 257.5,172.167 257.5,172.833 257.5,173.5C 256.094,173.973 255.427,174.973 255.5,176.5C 254.883,176.611 254.383,176.944 254,177.5C 252.516,181.447 251.35,185.447 250.5,189.5C 249.566,190.568 249.232,191.901 249.5,193.5C 247.759,195.395 246.759,197.728 246.5,200.5C 246.737,201.791 246.404,202.791 245.5,203.5C 244.419,206.627 243.753,209.96 243.5,213.5C 243.5,214.167 243.5,214.833 243.5,215.5C 242.307,215.97 241.64,216.97 241.5,218.5C 240.754,222.132 240.421,225.798 240.5,229.5C 240.5,230.167 240.5,230.833 240.5,231.5C 239.732,232.263 239.232,233.263 239,234.5C 238.5,322.833 238.333,411.166 238.5,499.5C 158.833,499.5 79.1667,499.5 -0.5,499.5C -0.5,332.833 -0.5,166.167 -0.5,-0.5 Z"/></g>
<g><path style="opacity:1" fill="#8a8a8a" d="M 332.5,74.5 C 325.798,74.6643 319.131,74.331 312.5,73.5C 305.08,73.2027 297.746,73.536 290.5,74.5C 290.577,73.2502 291.244,72.4169 292.5,72C 306.044,71.6959 319.377,72.5292 332.5,74.5 Z"/></g>
<g><path style="opacity:1" fill="#020202" d="M 312.5,73.5 C 312.918,74.2216 313.584,74.7216 314.5,75C 326.52,75.2747 338.52,75.7747 350.5,76.5C 352.167,77.5 353.5,78.8333 354.5,80.5C 354.808,99.5464 354.475,118.546 353.5,137.5C 353.5,138.167 353.5,138.833 353.5,139.5C 352.167,140.167 351.167,141.167 350.5,142.5C 346.766,142.677 343.099,142.344 339.5,141.5C 338.272,140.694 337.272,139.694 336.5,138.5C 336.832,128.478 336.499,118.478 335.5,108.5C 334.478,108.855 333.811,109.522 333.5,110.5C 331.167,112.167 329.167,114.167 327.5,116.5C 326.833,116.833 326.167,117.167 325.5,117.5C 321.86,120.473 318.527,123.806 315.5,127.5C 313.856,127.81 312.856,128.81 312.5,130.5C 310.856,130.81 309.856,131.81 309.5,133.5C 303.722,137.94 299.055,143.273 295.5,149.5C 291.329,153.007 288.329,157.341 286.5,162.5C 285.094,162.973 284.427,163.973 284.5,165.5C 283.11,166.899 282.11,168.566 281.5,170.5C 280.662,170.842 280.328,171.508 280.5,172.5C 279.115,173.574 277.949,174.907 277,176.5C 274.609,181.284 272.776,186.284 271.5,191.5C 271.5,191.833 271.5,192.167 271.5,192.5C 269.621,193.895 268.621,195.895 268.5,198.5C 268.435,201.428 267.768,204.095 266.5,206.5C 265.216,210.985 264.216,215.651 263.5,220.5C 262.076,222.515 261.41,224.848 261.5,227.5C 261.784,229.415 261.451,231.081 260.5,232.5C 259.732,233.263 259.232,234.263 259,235.5C 258.5,323.499 258.333,411.499 258.5,499.5C 252.167,499.5 245.833,499.5 239.5,499.5C 239.182,410.151 239.515,320.818 240.5,231.5C 240.5,230.833 240.5,230.167 240.5,229.5C 241.222,229.082 241.722,228.416 242,227.5C 242.304,223.452 242.804,219.452 243.5,215.5C 243.5,214.833 243.5,214.167 243.5,213.5C 244.222,213.082 244.722,212.416 245,211.5C 245.497,208.854 245.664,206.187 245.5,203.5C 246.404,202.791 246.737,201.791 246.5,200.5C 248.357,198.718 249.357,196.385 249.5,193.5C 249.232,191.901 249.566,190.568 250.5,189.5C 252.752,185.414 254.418,181.081 255.5,176.5C 256.906,176.027 257.573,175.027 257.5,173.5C 257.5,172.833 257.5,172.167 257.5,171.5C 260.607,167.621 262.941,163.288 264.5,158.5C 264.5,157.833 264.833,157.5 265.5,157.5C 266.931,156.22 267.598,154.553 267.5,152.5C 268.167,151.833 268.833,151.167 269.5,150.5C 270.906,150.027 271.573,149.027 271.5,147.5C 272.974,146.564 273.974,145.23 274.5,143.5C 275.932,141.673 277.599,140.006 279.5,138.5C 280.386,137.675 280.719,136.675 280.5,135.5C 283.54,132.461 286.206,129.127 288.5,125.5C 291.833,121.5 295.5,117.833 299.5,114.5C 304.779,109.887 309.779,104.887 314.5,99.5C 315.5,98.1667 316.5,96.8333 317.5,95.5C 317.833,95.5 318.167,95.5 318.5,95.5C 319.404,94.791 319.737,93.791 319.5,92.5C 316.833,92.5 314.167,92.5 311.5,92.5C 305.155,92.3473 298.822,92.014 292.5,91.5C 287.811,88.012 286.311,83.3453 288,77.5C 288.377,76.0577 289.21,75.0577 290.5,74.5C 297.746,73.536 305.08,73.2027 312.5,73.5 Z"/></g>
<g><path style="opacity:1" fill="#232323" d="M 312.5,73.5 C 319.131,74.331 325.798,74.6643 332.5,74.5C 337.511,74.3341 342.511,74.5007 347.5,75C 348.737,75.2321 349.737,75.7321 350.5,76.5C 338.52,75.7747 326.52,75.2747 314.5,75C 313.584,74.7216 312.918,74.2216 312.5,73.5 Z"/></g>
<g><path style="opacity:1" fill="#d0d0d0" d="M 355.5,80.5 C 356.662,99.3289 356.829,118.329 356,137.5C 355.292,138.381 354.458,139.047 353.5,139.5C 353.5,138.833 353.5,138.167 353.5,137.5C 354.117,137.389 354.617,137.056 355,136.5C 355.5,117.836 355.667,99.1696 355.5,80.5 Z"/></g>
<g><path style="opacity:1" fill="#b9b9b9" d="M 292.5,91.5 C 298.822,92.014 305.155,92.3473 311.5,92.5C 314.159,92.9174 316.492,93.9174 318.5,95.5C 318.167,95.5 317.833,95.5 317.5,95.5C 308.984,94.4301 300.65,93.0968 292.5,91.5 Z"/></g>
<g><path style="opacity:1" fill="#828282" d="M 311.5,92.5 C 314.167,92.5 316.833,92.5 319.5,92.5C 319.737,93.791 319.404,94.791 318.5,95.5C 316.492,93.9174 314.159,92.9174 311.5,92.5 Z"/></g>
<g><path style="opacity:1" fill="#5e5e5e" d="M 314.5,99.5 C 309.779,104.887 304.779,109.887 299.5,114.5C 300.581,112.236 301.915,110.069 303.5,108C 307.061,104.927 310.728,102.094 314.5,99.5 Z"/></g>
<g><path style="opacity:1" fill="#757575" d="M 336.5,138.5 C 335.662,138.158 335.328,137.492 335.5,136.5C 336.136,127.435 335.47,118.769 333.5,110.5C 333.811,109.522 334.478,108.855 335.5,108.5C 336.499,118.478 336.832,128.478 336.5,138.5 Z"/></g>
<g><path style="opacity:1" fill="#5d5d5d" d="M 354.5,80.5 C 354.833,80.5 355.167,80.5 355.5,80.5C 355.667,99.1696 355.5,117.836 355,136.5C 354.617,137.056 354.117,137.389 353.5,137.5C 354.475,118.546 354.808,99.5464 354.5,80.5 Z"/></g>
<g><path style="opacity:1" fill="#bdbdbd" d="M 333.5,110.5 C 335.47,118.769 336.136,127.435 335.5,136.5C 334.833,128.657 334.167,120.657 333.5,112.5C 331.754,114.252 329.754,115.585 327.5,116.5C 329.167,114.167 331.167,112.167 333.5,110.5 Z"/></g>
<g><path style="opacity:1" fill="#a4a4a4" d="M 325.5,117.5 C 323.194,121.806 319.861,125.139 315.5,127.5C 318.527,123.806 321.86,120.473 325.5,117.5 Z"/></g>
<g><path style="opacity:1" fill="#727272" d="M 288.5,125.5 C 286.206,129.127 283.54,132.461 280.5,135.5C 282.033,131.296 284.7,127.963 288.5,125.5 Z"/></g>
<g><path style="opacity:1" fill="#888888" d="M 312.5,130.5 C 312.144,132.19 311.144,133.19 309.5,133.5C 309.856,131.81 310.856,130.81 312.5,130.5 Z"/></g>
<g><path style="opacity:1" fill="#525252" d="M 280.5,135.5 C 280.719,136.675 280.386,137.675 279.5,138.5C 277.599,140.006 275.932,141.673 274.5,143.5C 275.41,139.935 277.41,137.268 280.5,135.5 Z"/></g>
<g><path style="opacity:1" fill="#878787" d="M 309.5,133.5 C 305.199,139.135 300.533,144.468 295.5,149.5C 299.055,143.273 303.722,137.94 309.5,133.5 Z"/></g>
<g><path style="opacity:1" fill="#737373" d="M 339.5,141.5 C 343.099,142.344 346.766,142.677 350.5,142.5C 347.36,143.641 344.027,143.808 340.5,143C 339.944,142.617 339.611,142.117 339.5,141.5 Z"/></g>
<g><path style="opacity:1" fill="#6c6c6c" d="M 274.5,143.5 C 273.974,145.23 272.974,146.564 271.5,147.5C 271.554,145.368 272.554,144.035 274.5,143.5 Z"/></g>
<g><path style="opacity:1" fill="#6c6c6c" d="M 271.5,147.5 C 271.573,149.027 270.906,150.027 269.5,150.5C 269.427,148.973 270.094,147.973 271.5,147.5 Z"/></g>
<g><path style="opacity:1" fill="#a5a5a5" d="M 295.5,149.5 C 295.108,151.179 294.608,152.846 294,154.5C 292.035,157.632 289.535,160.299 286.5,162.5C 288.329,157.341 291.329,153.007 295.5,149.5 Z"/></g>
<g><path style="opacity:1" fill="#858585" d="M 267.5,152.5 C 267.598,154.553 266.931,156.22 265.5,157.5C 265.402,155.447 266.069,153.78 267.5,152.5 Z"/></g>
<g><path style="opacity:1" fill="#888888" d="M 264.5,158.5 C 262.941,163.288 260.607,167.621 257.5,171.5C 259.069,166.692 261.402,162.358 264.5,158.5 Z"/></g>
<g><path style="opacity:1" fill="#626262" d="M 286.5,162.5 C 286.5,163.167 286.5,163.833 286.5,164.5C 285.833,164.833 285.167,165.167 284.5,165.5C 284.427,163.973 285.094,162.973 286.5,162.5 Z"/></g>
<g><path style="opacity:1" fill="#a6a6a6" d="M 286.5,164.5 C 285.774,167.288 284.107,169.288 281.5,170.5C 282.11,168.566 283.11,166.899 284.5,165.5C 285.167,165.167 285.833,164.833 286.5,164.5 Z"/></g>
<g><path style="opacity:1" fill="#5b5b5b" d="M 257.5,173.5 C 257.573,175.027 256.906,176.027 255.5,176.5C 255.427,174.973 256.094,173.973 257.5,173.5 Z"/></g>
<g><path style="opacity:1" fill="#5e5e5e" d="M 255.5,176.5 C 254.418,181.081 252.752,185.414 250.5,189.5C 251.35,185.447 252.516,181.447 254,177.5C 254.383,176.944 254.883,176.611 255.5,176.5 Z"/></g>
<g><path style="opacity:1" fill="#777777" d="M 280.5,172.5 C 280.657,173.873 280.49,175.207 280,176.5C 276.904,181.41 274.071,186.41 271.5,191.5C 272.776,186.284 274.609,181.284 277,176.5C 277.949,174.907 279.115,173.574 280.5,172.5 Z"/></g>
<g><path style="opacity:1" fill="#585858" d="M 271.5,192.5 C 271.088,194.887 270.088,196.887 268.5,198.5C 268.621,195.895 269.621,193.895 271.5,192.5 Z"/></g>
<g><path style="opacity:1" fill="#434343" d="M 249.5,193.5 C 249.357,196.385 248.357,198.718 246.5,200.5C 246.759,197.728 247.759,195.395 249.5,193.5 Z"/></g>
<g><path style="opacity:1" fill="#505050" d="M 245.5,203.5 C 245.664,206.187 245.497,208.854 245,211.5C 244.722,212.416 244.222,213.082 243.5,213.5C 243.753,209.96 244.419,206.627 245.5,203.5 Z"/></g>
<g><path style="opacity:1" fill="#c5c5c5" d="M 266.5,206.5 C 266.579,210.202 266.246,213.868 265.5,217.5C 265.36,219.03 264.693,220.03 263.5,220.5C 264.216,215.651 265.216,210.985 266.5,206.5 Z"/></g>
<g><path style="opacity:1" fill="#6d6d6d" d="M 263.5,220.5 C 263.5,221.833 263.5,223.167 263.5,224.5C 262.833,225.5 262.167,226.5 261.5,227.5C 261.41,224.848 262.076,222.515 263.5,220.5 Z"/></g>
<g><path style="opacity:1" fill="#626262" d="M 243.5,215.5 C 242.804,219.452 242.304,223.452 242,227.5C 241.722,228.416 241.222,229.082 240.5,229.5C 240.421,225.798 240.754,222.132 241.5,218.5C 241.64,216.97 242.307,215.97 243.5,215.5 Z"/></g>
<g><path style="opacity:1" fill="#2d2d2d" d="M 260.5,232.5 C 260.5,321.5 260.5,410.5 260.5,499.5C 259.833,499.5 259.167,499.5 258.5,499.5C 258.333,411.499 258.5,323.499 259,235.5C 259.232,234.263 259.732,233.263 260.5,232.5 Z"/></g>
<g><path style="opacity:1" fill="#999999" d="M 240.5,231.5 C 239.515,320.818 239.182,410.151 239.5,499.5C 239.167,499.5 238.833,499.5 238.5,499.5C 238.333,411.166 238.5,322.833 239,234.5C 239.232,233.263 239.732,232.263 240.5,231.5 Z"/></g>
<g><path style="opacity:1" fill="#dadada" d="M 263.5,224.5 C 262.801,232.475 262.301,240.475 262,248.5C 261.5,332.166 261.333,415.833 261.5,499.5C 261.167,499.5 260.833,499.5 260.5,499.5C 260.5,410.5 260.5,321.5 260.5,232.5C 261.451,231.081 261.784,229.415 261.5,227.5C 262.167,226.5 262.833,225.5 263.5,224.5 Z"/></g>
</svg>
