<?xml version="1.0" encoding="UTF-8"?>
<!DOCTYPE svg PUBLIC "-//W3C//DTD SVG 1.1//EN" "http://www.w3.org/Graphics/SVG/1.1/DTD/svg11.dtd">
<svg xmlns="http://www.w3.org/2000/svg" version="1.1" width="500px" height="500px" style="shape-rendering:geometricPrecision; text-rendering:geometricPrecision; image-rendering:optimizeQuality; fill-rule:evenodd; clip-rule:evenodd" xmlns:xlink="http://www.w3.org/1999/xlink">
<g><path style="opacity:1" fill="#fefefe" d="M -0.5,-0.5 C 166.167,-0.5 332.833,-0.5 499.5,-0.5C 499.5,166.167 499.5,332.833 499.5,499.5C 421.5,499.5 343.5,499.5 265.5,499.5C 265.333,442.166 265.5,384.832 266,327.5C 266.696,324.522 267.196,321.522 267.5,318.5C 273.336,301.338 283.669,287.504 298.5,277C 307.406,271.524 317.072,268.691 327.5,268.5C 337.681,268.173 347.681,268.506 357.5,269.5C 349.106,277.724 341.272,286.391 334,295.5C 332.556,303.278 335.389,308.945 342.5,312.5C 342.611,313.117 342.944,313.617 343.5,314C 346.167,314.667 348.833,314.667 351.5,314C 352.942,313.623 353.942,312.79 354.5,311.5C 369.767,294.731 385.6,278.398 402,262.5C 406.565,256.801 406.565,251.134 402,245.5C 385.886,229.718 370.053,213.552 354.5,197C 343.059,192.06 335.726,195.727 332.5,208C 332.854,211.737 334.354,214.903 337,217.5C 344.047,224.076 350.881,230.743 357.5,237.5C 347.374,239.158 337.04,240.158 326.5,240.5C 321.951,240.624 317.618,241.291 313.5,242.5C 311.708,242.366 310.042,242.699 308.5,243.5C 303.536,243.816 299.203,245.483 295.5,248.5C 284.158,253.18 274.158,259.846 265.5,268.5C 264.833,254.167 264.167,239.833 263.5,225.5C 263.5,203.167 263.5,180.833 263.5,158.5C 263.171,144.656 263.504,130.99 264.5,117.5C 273.797,125.323 282.464,133.823 290.5,143C 295.06,146.746 300.06,147.413 305.5,145C 309.042,142.293 312.042,139.126 314.5,135.5C 315.972,133.883 316.639,131.883 316.5,129.5C 316.489,127.955 316.156,126.622 315.5,125.5C 315.291,124.078 314.791,122.745 314,121.5C 293.5,101.667 273,81.8333 252.5,62C 246.985,59.7619 241.651,60.0952 236.5,63C 217.027,82.473 197.527,101.973 178,121.5C 173.721,132.456 176.888,140.623 187.5,146C 192.316,147.027 196.65,146.027 200.5,143C 209.008,134.325 217.675,125.825 226.5,117.5C 227.167,145.833 227.833,174.167 228.5,202.5C 228.5,203.5 228.5,204.5 228.5,205.5C 228.831,227.007 228.497,248.34 227.5,269.5C 218.538,259.686 207.871,252.352 195.5,247.5C 193.383,245.345 190.716,244.345 187.5,244.5C 182.777,242.49 177.777,241.49 172.5,241.5C 170.393,240.532 168.059,240.198 165.5,240.5C 155.292,240.158 145.292,239.158 135.5,237.5C 144.171,229.994 152.005,221.661 159,212.5C 159.833,200 154,194.167 141.5,195C 125.692,211.141 109.525,226.974 93,242.5C 91.3333,244.833 89.6667,247.167 88,249.5C 87.1628,253.295 87.4961,256.961 89,260.5C 105.138,277.638 121.638,294.472 138.5,311C 146.551,315.098 153.051,313.265 158,305.5C 160.19,300.972 159.856,296.639 157,292.5C 149.261,285.265 142.095,277.598 135.5,269.5C 145.319,268.506 155.319,268.173 165.5,268.5C 189.015,271.506 206.848,283.172 219,303.5C 223.727,312.681 227.06,322.347 229,332.5C 229.5,388.166 229.667,443.832 229.5,499.5C 152.833,499.5 76.1667,499.5 -0.5,499.5C -0.5,332.833 -0.5,166.167 -0.5,-0.5 Z"/></g>
<g><path style="opacity:1" fill="#020202" d="M 315.5,125.5 C 315.54,128.881 315.207,132.214 314.5,135.5C 312.042,139.126 309.042,142.293 305.5,145C 300.06,147.413 295.06,146.746 290.5,143C 282.464,133.823 273.797,125.323 264.5,117.5C 264.44,116.957 264.107,116.624 263.5,116.5C 262.174,130.661 262.174,144.661 263.5,158.5C 263.5,180.833 263.5,203.167 263.5,225.5C 263.333,240.504 263.5,255.504 264,270.5C 264.717,269.956 265.217,269.289 265.5,268.5C 274.158,259.846 284.158,253.18 295.5,248.5C 299.987,247.008 304.32,245.342 308.5,243.5C 310.042,242.699 311.708,242.366 313.5,242.5C 329.166,241.97 344.833,241.303 360.5,240.5C 360.376,239.893 360.043,239.56 359.5,239.5C 359.167,238.5 358.5,237.833 357.5,237.5C 350.881,230.743 344.047,224.076 337,217.5C 334.354,214.903 332.854,211.737 332.5,208C 335.726,195.727 343.059,192.06 354.5,197C 370.053,213.552 385.886,229.718 402,245.5C 406.565,251.134 406.565,256.801 402,262.5C 385.6,278.398 369.767,294.731 354.5,311.5C 350.598,313.417 346.598,313.751 342.5,312.5C 335.389,308.945 332.556,303.278 334,295.5C 341.272,286.391 349.106,277.724 357.5,269.5C 358.289,269.217 358.956,268.717 359.5,268C 348.659,267.175 337.992,267.341 327.5,268.5C 317.072,268.691 307.406,271.524 298.5,277C 283.669,287.504 273.336,301.338 267.5,318.5C 266.224,320.562 265.39,322.896 265,325.5C 264.5,383.499 264.333,441.499 264.5,499.5C 252.833,499.5 241.167,499.5 229.5,499.5C 229.667,443.832 229.5,388.166 229,332.5C 227.06,322.347 223.727,312.681 219,303.5C 206.848,283.172 189.015,271.506 165.5,268.5C 155.008,267.341 144.341,267.175 133.5,268C 134.044,268.717 134.711,269.217 135.5,269.5C 142.095,277.598 149.261,285.265 157,292.5C 159.856,296.639 160.19,300.972 158,305.5C 153.051,313.265 146.551,315.098 138.5,311C 121.638,294.472 105.138,277.638 89,260.5C 87.4961,256.961 87.1628,253.295 88,249.5C 89.6667,247.167 91.3333,244.833 93,242.5C 109.525,226.974 125.692,211.141 141.5,195C 154,194.167 159.833,200 159,212.5C 152.005,221.661 144.171,229.994 135.5,237.5C 134.5,237.833 133.833,238.5 133.5,239.5C 132.957,239.56 132.624,239.893 132.5,240.5C 145.817,241.499 159.15,241.833 172.5,241.5C 177.777,241.49 182.777,242.49 187.5,244.5C 189.936,245.871 192.603,246.871 195.5,247.5C 207.871,252.352 218.538,259.686 227.5,269.5C 227.56,270.043 227.893,270.376 228.5,270.5C 229.828,248.67 229.828,227.004 228.5,205.5C 228.5,204.5 228.5,203.5 228.5,202.5C 228.667,173.498 228.5,144.498 228,115.5C 227.283,116.044 226.783,116.711 226.5,117.5C 217.675,125.825 209.008,134.325 200.5,143C 196.65,146.027 192.316,147.027 187.5,146C 176.888,140.623 173.721,132.456 178,121.5C 197.527,101.973 217.027,82.473 236.5,63C 241.651,60.0952 246.985,59.7619 252.5,62C 273,81.8333 293.5,101.667 314,121.5C 314.791,122.745 315.291,124.078 315.5,125.5 Z"/></g>
<g><path style="opacity:1" fill="#5a5a5a" d="M 315.5,125.5 C 316.156,126.622 316.489,127.955 316.5,129.5C 316.639,131.883 315.972,133.883 314.5,135.5C 315.207,132.214 315.54,128.881 315.5,125.5 Z"/></g>
<g><path style="opacity:1" fill="#424242" d="M 264.5,117.5 C 263.504,130.99 263.171,144.656 263.5,158.5C 262.174,144.661 262.174,130.661 263.5,116.5C 264.107,116.624 264.44,116.957 264.5,117.5 Z"/></g>
<g><path style="opacity:1" fill="#939393" d="M 228.5,202.5 C 227.833,174.167 227.167,145.833 226.5,117.5C 226.783,116.711 227.283,116.044 228,115.5C 228.5,144.498 228.667,173.498 228.5,202.5 Z"/></g>
<g><path style="opacity:1" fill="#1f1f1f" d="M 228.5,205.5 C 229.828,227.004 229.828,248.67 228.5,270.5C 227.893,270.376 227.56,270.043 227.5,269.5C 228.497,248.34 228.831,227.007 228.5,205.5 Z"/></g>
<g><path style="opacity:1" fill="#b6b6b6" d="M 135.5,237.5 C 145.292,239.158 155.292,240.158 165.5,240.5C 154.654,240.828 143.987,240.494 133.5,239.5C 133.833,238.5 134.5,237.833 135.5,237.5 Z"/></g>
<g><path style="opacity:1" fill="#b4b4b4" d="M 357.5,237.5 C 358.5,237.833 359.167,238.5 359.5,239.5C 348.679,240.495 337.679,240.828 326.5,240.5C 337.04,240.158 347.374,239.158 357.5,237.5 Z"/></g>
<g><path style="opacity:1" fill="#2c2c2c" d="M 133.5,239.5 C 143.987,240.494 154.654,240.828 165.5,240.5C 168.059,240.198 170.393,240.532 172.5,241.5C 159.15,241.833 145.817,241.499 132.5,240.5C 132.624,239.893 132.957,239.56 133.5,239.5 Z"/></g>
<g><path style="opacity:1" fill="#292929" d="M 359.5,239.5 C 360.043,239.56 360.376,239.893 360.5,240.5C 344.833,241.303 329.166,241.97 313.5,242.5C 317.618,241.291 321.951,240.624 326.5,240.5C 337.679,240.828 348.679,240.495 359.5,239.5 Z"/></g>
<g><path style="opacity:1" fill="#707070" d="M 308.5,243.5 C 304.32,245.342 299.987,247.008 295.5,248.5C 299.203,245.483 303.536,243.816 308.5,243.5 Z"/></g>
<g><path style="opacity:1" fill="#a1a1a1" d="M 187.5,244.5 C 190.716,244.345 193.383,245.345 195.5,247.5C 192.603,246.871 189.936,245.871 187.5,244.5 Z"/></g>
<g><path style="opacity:1" fill="#b4b4b4" d="M 263.5,225.5 C 264.167,239.833 264.833,254.167 265.5,268.5C 265.217,269.289 264.717,269.956 264,270.5C 263.5,255.504 263.333,240.504 263.5,225.5 Z"/></g>
<g><path style="opacity:1" fill="#c8c8c8" d="M 165.5,268.5 C 155.319,268.173 145.319,268.506 135.5,269.5C 134.711,269.217 134.044,268.717 133.5,268C 144.341,267.175 155.008,267.341 165.5,268.5 Z"/></g>
<g><path style="opacity:1" fill="#cccccc" d="M 327.5,268.5 C 337.992,267.341 348.659,267.175 359.5,268C 358.956,268.717 358.289,269.217 357.5,269.5C 347.681,268.506 337.681,268.173 327.5,268.5 Z"/></g>
<g><path style="opacity:1" fill="#b3b3b3" d="M 354.5,311.5 C 353.942,312.79 352.942,313.623 351.5,314C 348.833,314.667 346.167,314.667 343.5,314C 342.944,313.617 342.611,313.117 342.5,312.5C 346.598,313.751 350.598,313.417 354.5,311.5 Z"/></g>
<g><path style="opacity:1" fill="#cecece" d="M 267.5,318.5 C 267.196,321.522 266.696,324.522 266,327.5C 265.5,384.832 265.333,442.166 265.5,499.5C 265.167,499.5 264.833,499.5 264.5,499.5C 264.333,441.499 264.5,383.499 265,325.5C 265.39,322.896 266.224,320.562 267.5,318.5 Z"/></g>
</svg>
