<?xml version="1.0" encoding="UTF-8"?>
<!DOCTYPE svg PUBLIC "-//W3C//DTD SVG 1.1//EN" "http://www.w3.org/Graphics/SVG/1.1/DTD/svg11.dtd">
<svg xmlns="http://www.w3.org/2000/svg" version="1.1" width="500px" height="500px" style="shape-rendering:geometricPrecision; text-rendering:geometricPrecision; image-rendering:optimizeQuality; fill-rule:evenodd; clip-rule:evenodd" xmlns:xlink="http://www.w3.org/1999/xlink">
<g><path style="opacity:1" fill="#fefefe" d="M -0.5,-0.5 C 166.167,-0.5 332.833,-0.5 499.5,-0.5C 499.5,166.167 499.5,332.833 499.5,499.5C 332.833,499.5 166.167,499.5 -0.5,499.5C -0.5,332.833 -0.5,166.167 -0.5,-0.5 Z"/></g>
<g><path style="opacity:1" fill="#575757" d="M 220.5,153.5 C 216.049,152.122 211.716,152.455 207.5,154.5C 209.332,152.106 211.832,151.106 215,151.5C 216.5,151.667 218,151.833 219.5,152C 220.056,152.383 220.389,152.883 220.5,153.5 Z"/></g>
<g><path style="opacity:1" fill="#030303" d="M 220.5,153.5 C 226.768,156.103 230.434,160.77 231.5,167.5C 231.308,169.577 230.808,171.577 230,173.5C 221.328,183.005 212.495,192.338 203.5,201.5C 202.188,202.145 201.188,203.145 200.5,204.5C 212.815,205.499 225.149,205.832 237.5,205.5C 241.135,206.114 244.802,206.448 248.5,206.5C 248.611,207.117 248.944,207.617 249.5,208C 253.145,208.719 256.812,209.219 260.5,209.5C 262.515,210.924 264.848,211.59 267.5,211.5C 277.298,215.402 286.631,220.402 295.5,226.5C 296.167,227.833 297.167,228.833 298.5,229.5C 302.1,231.43 305.1,234.097 307.5,237.5C 308.325,238.386 309.325,238.719 310.5,238.5C 310.351,239.552 310.517,240.552 311,241.5C 320.812,251.148 327.978,262.482 332.5,275.5C 332.427,277.027 333.094,278.027 334.5,278.5C 343.329,302.14 346.663,326.473 344.5,351.5C 334.478,351.832 324.478,351.499 314.5,350.5C 315.817,341.705 315.817,333.038 314.5,324.5C 313.159,316.127 311.493,307.794 309.5,299.5C 309.245,297.033 308.245,295.033 306.5,293.5C 296.146,262.987 275.146,244.154 243.5,237C 229.167,236.333 214.833,236.333 200.5,237C 208.667,245.167 216.833,253.333 225,261.5C 232.453,269.811 232.286,277.977 224.5,286C 222.35,287.411 220.016,288.245 217.5,288.5C 215.5,288.5 213.5,288.5 211.5,288.5C 209.407,287.955 207.407,287.122 205.5,286C 187.756,266.853 169.59,248.02 151,229.5C 146.811,224.042 146.478,218.376 150,212.5C 168.646,192.687 187.813,173.354 207.5,154.5C 211.716,152.455 216.049,152.122 220.5,153.5 Z"/></g>
<g><path style="opacity:1" fill="#b0b0b0" d="M 203.5,201.5 C 203.586,202.496 203.252,203.329 202.5,204C 214.341,204.169 226.007,204.669 237.5,205.5C 225.149,205.832 212.815,205.499 200.5,204.5C 201.188,203.145 202.188,202.145 203.5,201.5 Z"/></g>
<g><path style="opacity:1" fill="#525252" d="M 248.5,206.5 C 252.713,207.082 256.713,208.082 260.5,209.5C 256.812,209.219 253.145,208.719 249.5,208C 248.944,207.617 248.611,207.117 248.5,206.5 Z"/></g>
<g><path style="opacity:1" fill="#9e9e9e" d="M 260.5,209.5 C 263.152,209.41 265.485,210.076 267.5,211.5C 264.848,211.59 262.515,210.924 260.5,209.5 Z"/></g>
<g><path style="opacity:1" fill="#7f7f7f" d="M 295.5,226.5 C 297.5,226.5 298.5,227.5 298.5,229.5C 297.167,228.833 296.167,227.833 295.5,226.5 Z"/></g>
<g><path style="opacity:1" fill="#6d6d6d" d="M 332.5,275.5 C 333.906,275.973 334.573,276.973 334.5,278.5C 333.094,278.027 332.427,277.027 332.5,275.5 Z"/></g>
<g><path style="opacity:1" fill="#a1a1a1" d="M 211.5,288.5 C 213.5,288.5 215.5,288.5 217.5,288.5C 217.03,289.693 216.03,290.36 214.5,290.5C 212.97,290.36 211.97,289.693 211.5,288.5 Z"/></g>
<g><path style="opacity:1" fill="#6b6b6b" d="M 306.5,293.5 C 308.245,295.033 309.245,297.033 309.5,299.5C 307.621,298.105 306.621,296.105 306.5,293.5 Z"/></g>
<g><path style="opacity:1" fill="#777777" d="M 314.5,324.5 C 315.817,333.038 315.817,341.705 314.5,350.5C 324.478,351.499 334.478,351.832 344.5,351.5C 334.347,352.494 324.014,352.828 313.5,352.5C 314.183,343.182 314.517,333.849 314.5,324.5 Z"/></g>
</svg>
