<?xml version="1.0" encoding="UTF-8"?>
<!DOCTYPE svg PUBLIC "-//W3C//DTD SVG 1.1//EN" "http://www.w3.org/Graphics/SVG/1.1/DTD/svg11.dtd">
<svg xmlns="http://www.w3.org/2000/svg" version="1.1" width="500px" height="500px" style="shape-rendering:geometricPrecision; text-rendering:geometricPrecision; image-rendering:optimizeQuality; fill-rule:evenodd; clip-rule:evenodd" xmlns:xlink="http://www.w3.org/1999/xlink">
<g><path style="opacity:1" fill="#fefefe" d="M -0.5,-0.5 C 166.167,-0.5 332.833,-0.5 499.5,-0.5C 499.5,166.167 499.5,332.833 499.5,499.5C 424.167,499.5 348.833,499.5 273.5,499.5C 273.935,401.489 274.269,303.489 274.5,205.5C 284.319,214.819 293.986,224.319 303.5,234C 315.025,242.394 325.192,240.894 334,229.5C 338.658,222.795 338.658,216.128 334,209.5C 308.833,185 283.667,160.5 258.5,136C 251.049,132.199 244.049,132.865 237.5,138C 213.028,161.472 188.861,185.305 165,209.5C 159.813,218.526 160.98,226.692 168.5,234C 176.255,241.792 184.588,242.459 193.5,236C 204,225.5 214.5,215 225,204.5C 225.5,302.833 225.667,401.166 225.5,499.5C 150.167,499.5 74.8333,499.5 -0.5,499.5C -0.5,332.833 -0.5,166.167 -0.5,-0.5 Z"/></g>
<g><path style="opacity:1" fill="#020202" d="M 273.5,499.5 C 257.5,499.5 241.5,499.5 225.5,499.5C 225.667,401.166 225.5,302.833 225,204.5C 214.5,215 204,225.5 193.5,236C 184.588,242.459 176.255,241.792 168.5,234C 160.98,226.692 159.813,218.526 165,209.5C 188.861,185.305 213.028,161.472 237.5,138C 244.049,132.865 251.049,132.199 258.5,136C 283.667,160.5 308.833,185 334,209.5C 338.658,216.128 338.658,222.795 334,229.5C 325.192,240.894 315.025,242.394 303.5,234C 293.986,224.319 284.319,214.819 274.5,205.5C 274.269,303.489 273.935,401.489 273.5,499.5 Z"/></g>
</svg>
