<?xml version="1.0" encoding="UTF-8"?>
<!DOCTYPE svg PUBLIC "-//W3C//DTD SVG 1.1//EN" "http://www.w3.org/Graphics/SVG/1.1/DTD/svg11.dtd">
<svg xmlns="http://www.w3.org/2000/svg" version="1.1" width="500px" height="500px" style="shape-rendering:geometricPrecision; text-rendering:geometricPrecision; image-rendering:optimizeQuality; fill-rule:evenodd; clip-rule:evenodd" xmlns:xlink="http://www.w3.org/1999/xlink">
<g><path style="opacity:1" fill="#fefefe" d="M -0.5,-0.5 C 166.167,-0.5 332.833,-0.5 499.5,-0.5C 499.5,166.167 499.5,332.833 499.5,499.5C 332.833,499.5 166.167,499.5 -0.5,499.5C -0.5,332.833 -0.5,166.167 -0.5,-0.5 Z"/></g>
<g><path style="opacity:1" fill="#dedede" d="M 210.5,141.5 C 202.011,140.361 193.677,140.361 185.5,141.5C 182.375,142.479 179.042,142.813 175.5,142.5C 173.097,142.448 170.764,142.781 168.5,143.5C 168.611,142.883 168.944,142.383 169.5,142C 177.675,140.023 186.008,139.189 194.5,139.5C 200.211,139.505 205.544,140.172 210.5,141.5 Z"/></g>
<g><path style="opacity:1" fill="#818181" d="M 185.5,141.5 C 193.677,140.361 202.011,140.361 210.5,141.5C 210.5,141.833 210.5,142.167 210.5,142.5C 202.152,142.457 193.819,142.124 185.5,141.5 Z"/></g>
<g><path style="opacity:1" fill="#757575" d="M 175.5,142.5 C 172.548,144.41 169.214,145.41 165.5,145.5C 166.5,144.833 167.5,144.167 168.5,143.5C 170.764,142.781 173.097,142.448 175.5,142.5 Z"/></g>
<g><path style="opacity:1" fill="#030303" d="M 185.5,141.5 C 193.819,142.124 202.152,142.457 210.5,142.5C 212.167,142.5 213.833,142.5 215.5,142.5C 215.47,143.497 215.97,144.164 217,144.5C 220.314,145.282 223.48,146.282 226.5,147.5C 228.216,148.971 230.216,149.971 232.5,150.5C 232.5,151.167 232.833,151.5 233.5,151.5C 233.5,152.833 234.167,153.5 235.5,153.5C 239.5,155.5 242.5,158.5 244.5,162.5C 247.889,166.421 250.555,170.754 252.5,175.5C 252.5,175.833 252.5,176.167 252.5,176.5C 252.875,178.698 253.542,180.698 254.5,182.5C 255.449,201.473 255.782,220.473 255.5,239.5C 269.344,239.829 283.01,239.496 296.5,238.5C 296.833,238.5 297.167,238.5 297.5,238.5C 309.5,238.5 321.5,238.5 333.5,238.5C 333.715,236.821 333.048,235.821 331.5,235.5C 330.117,232.784 328.117,230.784 325.5,229.5C 325.573,227.973 324.906,226.973 323.5,226.5C 318.709,222.245 314.375,217.578 310.5,212.5C 309.075,207.714 309.408,203.048 311.5,198.5C 313.404,198.262 314.738,197.262 315.5,195.5C 315.833,195.5 316.167,195.5 316.5,195.5C 319.465,194.266 322.465,194.266 325.5,195.5C 326.167,195.5 326.833,195.5 327.5,195.5C 327.856,197.19 328.856,198.19 330.5,198.5C 331.167,198.5 331.5,198.833 331.5,199.5C 332.082,200.931 332.915,202.264 334,203.5C 334.671,204.252 335.504,204.586 336.5,204.5C 336.369,205.239 336.536,205.906 337,206.5C 340.519,209.616 344.019,212.616 347.5,215.5C 347.369,216.239 347.536,216.906 348,217.5C 349.651,219.21 351.484,220.544 353.5,221.5C 354.797,223.161 356.13,224.828 357.5,226.5C 357.427,228.027 358.094,229.027 359.5,229.5C 360.492,229.328 361.158,229.662 361.5,230.5C 361.554,232.632 362.554,233.965 364.5,234.5C 367.216,235.883 369.216,237.883 370.5,240.5C 371.437,243.269 372.604,245.936 374,248.5C 374.634,251.555 374.468,254.555 373.5,257.5C 369.504,262.163 365.504,266.83 361.5,271.5C 359.5,271.5 358.5,272.5 358.5,274.5C 356.5,275.833 354.833,277.5 353.5,279.5C 351.5,279.5 350.5,280.5 350.5,282.5C 350.5,282.833 350.5,283.167 350.5,283.5C 349.5,283.5 348.5,283.5 347.5,283.5C 347.608,285.514 346.942,287.18 345.5,288.5C 344.474,289.853 343.141,290.853 341.5,291.5C 340.094,291.973 339.427,292.973 339.5,294.5C 337.856,294.81 336.856,295.81 336.5,297.5C 333.566,298.982 331.566,301.316 330.5,304.5C 328.5,304.5 327.5,305.5 327.5,307.5C 326.833,307.5 326.167,307.5 325.5,307.5C 321.064,307.968 317.064,306.968 313.5,304.5C 312.167,304.5 311.5,303.833 311.5,302.5C 310.64,298.566 310.307,294.566 310.5,290.5C 312.785,286.273 315.785,282.607 319.5,279.5C 320.833,279.5 321.5,278.833 321.5,277.5C 322.906,277.027 323.573,276.027 323.5,274.5C 326.144,273.856 327.811,272.189 328.5,269.5C 328.5,269.167 328.5,268.833 328.5,268.5C 329.167,268.5 329.833,268.5 330.5,268.5C 332.727,267.599 333.727,265.933 333.5,263.5C 307.328,263.73 281.328,264.397 255.5,265.5C 254.508,272.648 254.175,279.981 254.5,287.5C 254.5,304.833 254.5,322.167 254.5,339.5C 245.167,339.5 235.833,339.5 226.5,339.5C 226.5,331.167 226.5,322.833 226.5,314.5C 227.461,310.665 228.295,306.665 229,302.5C 229.821,289.924 229.655,277.424 228.5,265C 227.328,264.581 226.328,263.915 225.5,263C 205.45,262.963 185.45,262.13 165.5,260.5C 162.574,259.539 159.574,258.873 156.5,258.5C 153.745,257.656 151.079,256.656 148.5,255.5C 148.5,254.833 148.167,254.5 147.5,254.5C 146.7,252.259 145.034,251.259 142.5,251.5C 142.5,250.167 141.833,249.5 140.5,249.5C 139.833,249.5 139.5,249.167 139.5,248.5C 139.5,247.167 138.833,246.5 137.5,246.5C 137.167,246.5 136.833,246.5 136.5,246.5C 135.199,245.118 134.366,243.452 134,241.5C 133.329,240.748 132.496,240.414 131.5,240.5C 130.35,238.603 129.35,236.603 128.5,234.5C 128.53,230.714 126.863,228.047 123.5,226.5C 123.174,223.689 122.341,221.022 121,218.5C 120.5,209.84 120.334,201.173 120.5,192.5C 122.807,186.876 125.473,181.21 128.5,175.5C 128.833,174.167 129.167,172.833 129.5,171.5C 131.567,169.773 133.233,167.773 134.5,165.5C 137.204,165.33 138.871,163.997 139.5,161.5C 142.688,159.068 145.688,156.401 148.5,153.5C 150.933,153.727 152.599,152.727 153.5,150.5C 153.833,150.5 154.167,150.5 154.5,150.5C 155.833,150.5 156.5,149.833 156.5,148.5C 157.5,148.5 158.5,148.5 159.5,148.5C 161.967,148.245 163.967,147.245 165.5,145.5C 169.214,145.41 172.548,144.41 175.5,142.5C 179.042,142.813 182.375,142.479 185.5,141.5 Z"/></g>
<g><path style="opacity:1" fill="#7e7e7e" d="M 215.5,142.5 C 218.715,142.905 221.715,143.905 224.5,145.5C 225.167,146.167 225.833,146.833 226.5,147.5C 223.48,146.282 220.314,145.282 217,144.5C 215.97,144.164 215.47,143.497 215.5,142.5 Z"/></g>
<g><path style="opacity:1" fill="#666666" d="M 165.5,145.5 C 163.967,147.245 161.967,148.245 159.5,148.5C 160.911,146.461 162.911,145.461 165.5,145.5 Z"/></g>
<g><path style="opacity:1" fill="#b0b0b0" d="M 224.5,145.5 C 225.978,145.238 227.311,145.571 228.5,146.5C 230.375,147.409 231.708,148.743 232.5,150.5C 230.216,149.971 228.216,148.971 226.5,147.5C 225.833,146.833 225.167,146.167 224.5,145.5 Z"/></g>
<g><path style="opacity:1" fill="#848484" d="M 156.5,148.5 C 156.5,149.833 155.833,150.5 154.5,150.5C 154.5,149.167 155.167,148.5 156.5,148.5 Z"/></g>
<g><path style="opacity:1" fill="#828282" d="M 153.5,150.5 C 152.599,152.727 150.933,153.727 148.5,153.5C 149.486,151.592 151.152,150.592 153.5,150.5 Z"/></g>
<g><path style="opacity:1" fill="#5e5e5e" d="M 233.5,151.5 C 234.833,151.5 235.5,152.167 235.5,153.5C 235.5,152.167 234.833,151.5 233.5,151.5 Z"/></g>
<g><path style="opacity:1" fill="#808080" d="M 148.5,153.5 C 145.688,156.401 142.688,159.068 139.5,161.5C 141.206,157.465 144.206,154.798 148.5,153.5 Z"/></g>
<g><path style="opacity:1" fill="#676767" d="M 139.5,161.5 C 138.871,163.997 137.204,165.33 134.5,165.5C 135.585,163.413 137.251,162.08 139.5,161.5 Z"/></g>
<g><path style="opacity:1" fill="#828282" d="M 209.5,170.5 C 197.809,169.697 186.142,169.697 174.5,170.5C 174.611,169.883 174.944,169.383 175.5,169C 186.5,168.333 197.5,168.333 208.5,169C 209.056,169.383 209.389,169.883 209.5,170.5 Z"/></g>
<g><path style="opacity:1" fill="#a9a9a9" d="M 244.5,162.5 C 249.904,164.949 252.57,169.282 252.5,175.5C 250.555,170.754 247.889,166.421 244.5,162.5 Z"/></g>
<g><path style="opacity:1" fill="#fdfdfd" d="M 213.5,173.5 C 216.518,174.672 219.185,176.339 221.5,178.5C 223.523,182.304 225.023,186.304 226,190.5C 226.693,205.847 226.526,221.181 225.5,236.5C 208.16,236.284 190.827,235.784 173.5,235C 169.649,234.586 165.983,233.752 162.5,232.5C 160.193,231.347 157.86,230.18 155.5,229C 154.512,226.833 153.179,225 151.5,223.5C 151.408,221.152 150.408,219.486 148.5,218.5C 148.5,218.167 148.5,217.833 148.5,217.5C 147.962,215.883 147.629,214.216 147.5,212.5C 147.5,207.5 147.5,202.5 147.5,197.5C 147.833,196.167 148.167,194.833 148.5,193.5C 148.5,193.167 148.5,192.833 148.5,192.5C 150.25,191.341 151.25,189.674 151.5,187.5C 152.496,187.586 153.329,187.252 154,186.5C 155.964,183.801 157.798,181.134 159.5,178.5C 162.231,176.834 164.897,175.168 167.5,173.5C 169.216,173.371 170.883,173.038 172.5,172.5C 176.928,171.603 181.428,170.936 186,170.5C 195.025,171.986 204.192,172.986 213.5,173.5 Z"/></g>
<g><path style="opacity:1" fill="#e5e5e5" d="M 209.5,170.5 C 209.833,170.5 210.167,170.5 210.5,170.5C 211.694,171.272 212.694,172.272 213.5,173.5C 204.192,172.986 195.025,171.986 186,170.5C 181.428,170.936 176.928,171.603 172.5,172.5C 173.167,171.833 173.833,171.167 174.5,170.5C 186.142,169.697 197.809,169.697 209.5,170.5 Z"/></g>
<g><path style="opacity:1" fill="#929292" d="M 174.5,170.5 C 173.833,171.167 173.167,171.833 172.5,172.5C 170.883,173.038 169.216,173.371 167.5,173.5C 169.176,171.166 171.509,170.166 174.5,170.5 Z"/></g>
<g><path style="opacity:1" fill="#787878" d="M 210.5,170.5 C 215.873,171.003 219.539,173.669 221.5,178.5C 219.185,176.339 216.518,174.672 213.5,173.5C 212.694,172.272 211.694,171.272 210.5,170.5 Z"/></g>
<g><path style="opacity:1" fill="#b3b3b3" d="M 129.5,171.5 C 129.167,172.833 128.833,174.167 128.5,175.5C 127.833,175.833 127.167,176.167 126.5,176.5C 126.259,173.966 127.259,172.3 129.5,171.5 Z"/></g>
<g><path style="opacity:1" fill="#868686" d="M 167.5,173.5 C 164.897,175.168 162.231,176.834 159.5,178.5C 161.114,175.231 163.781,173.564 167.5,173.5 Z"/></g>
<g><path style="opacity:1" fill="#6e6e6e" d="M 128.5,175.5 C 125.473,181.21 122.807,186.876 120.5,192.5C 120.861,186.464 122.861,181.13 126.5,176.5C 127.167,176.167 127.833,175.833 128.5,175.5 Z"/></g>
<g><path style="opacity:1" fill="#5f5f5f" d="M 252.5,176.5 C 254.308,177.918 254.975,179.918 254.5,182.5C 253.542,180.698 252.875,178.698 252.5,176.5 Z"/></g>
<g><path style="opacity:1" fill="#929292" d="M 159.5,178.5 C 157.798,181.134 155.964,183.801 154,186.5C 153.329,187.252 152.496,187.586 151.5,187.5C 152.781,183.222 155.448,180.222 159.5,178.5 Z"/></g>
<g><path style="opacity:1" fill="#898989" d="M 151.5,187.5 C 151.25,189.674 150.25,191.341 148.5,192.5C 148.592,190.152 149.592,188.486 151.5,187.5 Z"/></g>
<g><path style="opacity:1" fill="#4a4a4a" d="M 325.5,195.5 C 322.465,194.266 319.465,194.266 316.5,195.5C 317.514,194.235 319.014,193.569 321,193.5C 322.986,193.569 324.486,194.235 325.5,195.5 Z"/></g>
<g><path style="opacity:1" fill="#696969" d="M 315.5,195.5 C 314.738,197.262 313.404,198.262 311.5,198.5C 312.035,196.554 313.368,195.554 315.5,195.5 Z"/></g>
<g><path style="opacity:1" fill="#8d8d8d" d="M 327.5,195.5 C 329.5,195.5 330.5,196.5 330.5,198.5C 328.856,198.19 327.856,197.19 327.5,195.5 Z"/></g>
<g><path style="opacity:1" fill="#7b7b7b" d="M 254.5,182.5 C 255.222,182.918 255.722,183.584 256,184.5C 256.5,202.497 256.667,220.497 256.5,238.5C 269.833,238.5 283.167,238.5 296.5,238.5C 283.01,239.496 269.344,239.829 255.5,239.5C 255.782,220.473 255.449,201.473 254.5,182.5 Z"/></g>
<g><path style="opacity:1" fill="#aeaeae" d="M 331.5,199.5 C 332.833,199.5 334.167,199.5 335.5,199.5C 335.366,201.292 335.699,202.958 336.5,204.5C 335.504,204.586 334.671,204.252 334,203.5C 332.915,202.264 332.082,200.931 331.5,199.5 Z"/></g>
<g><path style="opacity:1" fill="#9c9c9c" d="M 120.5,192.5 C 120.334,201.173 120.5,209.84 121,218.5C 122.341,221.022 123.174,223.689 123.5,226.5C 120.228,222.628 118.728,217.961 119,212.5C 118.333,207.167 118.333,201.833 119,196.5C 119.21,194.942 119.71,193.609 120.5,192.5 Z"/></g>
<g><path style="opacity:1" fill="#949494" d="M 147.5,197.5 C 147.5,202.5 147.5,207.5 147.5,212.5C 146.833,211.833 146.167,211.167 145.5,210.5C 145.5,209.5 145.5,208.5 145.5,207.5C 145.159,203.84 145.825,200.507 147.5,197.5 Z"/></g>
<g><path style="opacity:1" fill="#3f3f3f" d="M 148.5,193.5 C 148.167,194.833 147.833,196.167 147.5,197.5C 145.825,200.507 145.159,203.84 145.5,207.5C 144.237,203.209 144.57,198.876 146.5,194.5C 146.957,193.702 147.624,193.369 148.5,193.5 Z"/></g>
<g><path style="opacity:1" fill="#555555" d="M 311.5,198.5 C 309.408,203.048 309.075,207.714 310.5,212.5C 309.206,210.952 308.539,208.952 308.5,206.5C 308.667,204.5 308.833,202.5 309,200.5C 309.708,199.619 310.542,198.953 311.5,198.5 Z"/></g>
<g><path style="opacity:1" fill="#434343" d="M 145.5,210.5 C 146.167,211.167 146.833,211.833 147.5,212.5C 147.629,214.216 147.962,215.883 148.5,217.5C 147.25,217.423 146.417,216.756 146,215.5C 145.506,213.866 145.34,212.199 145.5,210.5 Z"/></g>
<g><path style="opacity:1" fill="#c2c2c2" d="M 347.5,215.5 C 351.171,215.837 353.171,217.837 353.5,221.5C 351.484,220.544 349.651,219.21 348,217.5C 347.536,216.906 347.369,216.239 347.5,215.5 Z"/></g>
<g><path style="opacity:1" fill="#6f6f6f" d="M 148.5,218.5 C 150.408,219.486 151.408,221.152 151.5,223.5C 149.75,222.341 148.75,220.674 148.5,218.5 Z"/></g>
<g><path style="opacity:1" fill="#868686" d="M 323.5,226.5 C 324.906,226.973 325.573,227.973 325.5,229.5C 324.094,229.027 323.427,228.027 323.5,226.5 Z"/></g>
<g><path style="opacity:1" fill="#555555" d="M 357.5,226.5 C 358.906,226.973 359.573,227.973 359.5,229.5C 358.094,229.027 357.427,228.027 357.5,226.5 Z"/></g>
<g><path style="opacity:1" fill="#393939" d="M 123.5,226.5 C 126.863,228.047 128.53,230.714 128.5,234.5C 127.833,234.5 127.167,234.5 126.5,234.5C 125.656,231.745 124.656,229.079 123.5,226.5 Z"/></g>
<g><path style="opacity:1" fill="#616161" d="M 361.5,230.5 C 363.446,231.035 364.446,232.368 364.5,234.5C 362.554,233.965 361.554,232.632 361.5,230.5 Z"/></g>
<g><path style="opacity:1" fill="#d6d6d6" d="M 221.5,178.5 C 225.233,180.287 227.233,183.287 227.5,187.5C 227.775,204.195 227.441,220.861 226.5,237.5C 217.833,237.5 209.167,237.5 200.5,237.5C 197.167,237.5 193.833,237.5 190.5,237.5C 189.833,237.5 189.167,237.5 188.5,237.5C 181.991,236.671 175.324,236.005 168.5,235.5C 165.784,235.614 163.784,234.614 162.5,232.5C 165.983,233.752 169.649,234.586 173.5,235C 190.827,235.784 208.16,236.284 225.5,236.5C 226.526,221.181 226.693,205.847 226,190.5C 225.023,186.304 223.523,182.304 221.5,178.5 Z"/></g>
<g><path style="opacity:1" fill="#939393" d="M 168.5,235.5 C 175.324,236.005 181.991,236.671 188.5,237.5C 182.491,237.666 176.491,237.499 170.5,237C 169.584,236.722 168.918,236.222 168.5,235.5 Z"/></g>
<g><path style="opacity:1" fill="#c9c9c9" d="M 325.5,229.5 C 328.117,230.784 330.117,232.784 331.5,235.5C 320.37,237.159 309.037,238.159 297.5,238.5C 297.167,238.5 296.833,238.5 296.5,238.5C 296.5,237.5 296.5,236.5 296.5,235.5C 307.172,235.667 317.839,235.5 328.5,235C 326.84,233.512 325.84,231.679 325.5,229.5 Z"/></g>
<g><path style="opacity:1" fill="#b9b9b9" d="M 126.5,234.5 C 127.167,234.5 127.833,234.5 128.5,234.5C 129.35,236.603 130.35,238.603 131.5,240.5C 128.438,239.732 126.772,237.732 126.5,234.5 Z"/></g>
<g><path style="opacity:1" fill="#7e7e7e" d="M 227.5,187.5 C 228.833,204.5 228.833,221.5 227.5,238.5C 218.318,238.827 209.318,238.493 200.5,237.5C 209.167,237.5 217.833,237.5 226.5,237.5C 227.441,220.861 227.775,204.195 227.5,187.5 Z"/></g>
<g><path style="opacity:1" fill="#585858" d="M 331.5,235.5 C 333.048,235.821 333.715,236.821 333.5,238.5C 321.5,238.5 309.5,238.5 297.5,238.5C 309.037,238.159 320.37,237.159 331.5,235.5 Z"/></g>
<g><path style="opacity:1" fill="#3b3b3b" d="M 190.5,237.5 C 193.833,237.5 197.167,237.5 200.5,237.5C 209.318,238.493 218.318,238.827 227.5,238.5C 223.012,239.166 218.346,239.499 213.5,239.5C 205.615,239.619 197.948,238.952 190.5,237.5 Z"/></g>
<g><path style="opacity:1" fill="#999999" d="M 131.5,240.5 C 132.496,240.414 133.329,240.748 134,241.5C 134.366,243.452 135.199,245.118 136.5,246.5C 133.914,245.362 132.247,243.362 131.5,240.5 Z"/></g>
<g><path style="opacity:1" fill="#5f5f5f" d="M 137.5,246.5 C 138.833,246.5 139.5,247.167 139.5,248.5C 138.167,248.5 137.5,247.833 137.5,246.5 Z"/></g>
<g><path style="opacity:1" fill="#404040" d="M 370.5,240.5 C 371.496,240.414 372.329,240.748 373,241.5C 374.438,242.9 375.271,244.567 375.5,246.5C 375.5,249.167 375.5,251.833 375.5,254.5C 375.715,256.179 375.048,257.179 373.5,257.5C 374.468,254.555 374.634,251.555 374,248.5C 372.604,245.936 371.437,243.269 370.5,240.5 Z"/></g>
<g><path style="opacity:1" fill="#b6b6b6" d="M 375.5,246.5 C 376.748,247.334 377.415,248.667 377.5,250.5C 377.415,252.333 376.748,253.666 375.5,254.5C 375.5,251.833 375.5,249.167 375.5,246.5 Z"/></g>
<g><path style="opacity:1" fill="#868686" d="M 140.5,249.5 C 141.833,249.5 142.5,250.167 142.5,251.5C 141.167,251.5 140.5,250.833 140.5,249.5 Z"/></g>
<g><path style="opacity:1" fill="#6b6b6b" d="M 142.5,251.5 C 145.034,251.259 146.7,252.259 147.5,254.5C 145.011,254.759 143.344,253.759 142.5,251.5 Z"/></g>
<g><path style="opacity:1" fill="#bababa" d="M 148.5,255.5 C 151.079,256.656 153.745,257.656 156.5,258.5C 157.5,259.167 158.5,259.833 159.5,260.5C 154.671,261.064 151.004,259.398 148.5,255.5 Z"/></g>
<g><path style="opacity:1" fill="#666666" d="M 156.5,258.5 C 159.574,258.873 162.574,259.539 165.5,260.5C 168.02,261.918 170.687,262.918 173.5,263.5C 172.5,263.5 171.5,263.5 170.5,263.5C 166.588,263.376 162.921,262.376 159.5,260.5C 158.5,259.833 157.5,259.167 156.5,258.5 Z"/></g>
<g><path style="opacity:1" fill="#424242" d="M 330.5,268.5 C 330.414,267.504 330.748,266.671 331.5,266C 306.169,265.5 280.836,265.333 255.5,265.5C 281.328,264.397 307.328,263.73 333.5,263.5C 333.727,265.933 332.727,267.599 330.5,268.5 Z"/></g>
<g><path style="opacity:1" fill="#adadad" d="M 190.5,263.5 C 194.5,263.5 198.5,263.5 202.5,263.5C 204.167,264.167 205.833,264.833 207.5,265.5C 202.821,265.666 198.155,265.499 193.5,265C 192.263,264.768 191.263,264.268 190.5,263.5 Z"/></g>
<g><path style="opacity:1" fill="#707070" d="M 202.5,263.5 C 210.079,263.094 217.412,263.761 224.5,265.5C 218.833,265.5 213.167,265.5 207.5,265.5C 205.833,264.833 204.167,264.167 202.5,263.5 Z"/></g>
<g><path style="opacity:1" fill="#e1e1e1" d="M 170.5,263.5 C 171.5,263.5 172.5,263.5 173.5,263.5C 179.167,263.5 184.833,263.5 190.5,263.5C 191.263,264.268 192.263,264.768 193.5,265C 198.155,265.499 202.821,265.666 207.5,265.5C 213.167,265.5 218.833,265.5 224.5,265.5C 224.833,265.5 225.167,265.5 225.5,265.5C 225.827,275.015 225.494,284.348 224.5,293.5C 224.5,284.5 224.5,275.5 224.5,266.5C 206.22,267.191 188.22,266.191 170.5,263.5 Z"/></g>
<g><path style="opacity:1" fill="#c5c5c5" d="M 255.5,265.5 C 280.836,265.333 306.169,265.5 331.5,266C 330.748,266.671 330.414,267.504 330.5,268.5C 329.833,268.5 329.167,268.5 328.5,268.5C 304.857,266.51 280.857,265.843 256.5,266.5C 257.128,273.913 256.461,280.913 254.5,287.5C 254.175,279.981 254.508,272.648 255.5,265.5 Z"/></g>
<g><path style="opacity:1" fill="#ebebeb" d="M 328.5,268.5 C 328.5,268.833 328.5,269.167 328.5,269.5C 328.167,269.5 327.833,269.5 327.5,269.5C 304.524,267.51 281.191,266.843 257.5,267.5C 257.441,291.856 256.441,315.856 254.5,339.5C 254.5,322.167 254.5,304.833 254.5,287.5C 256.461,280.913 257.128,273.913 256.5,266.5C 280.857,265.843 304.857,266.51 328.5,268.5 Z"/></g>
<g><path style="opacity:1" fill="#bcbcbc" d="M 373.5,257.5 C 371.996,264.335 367.996,269.002 361.5,271.5C 365.504,266.83 369.504,262.163 373.5,257.5 Z"/></g>
<g><path style="opacity:1" fill="#a8a8a8" d="M 327.5,269.5 C 327.833,269.5 328.167,269.5 328.5,269.5C 327.811,272.189 326.144,273.856 323.5,274.5C 324.46,272.539 325.793,270.873 327.5,269.5 Z"/></g>
<g><path style="opacity:1" fill="#7b7b7b" d="M 361.5,271.5 C 360.833,272.833 359.833,273.833 358.5,274.5C 358.5,272.5 359.5,271.5 361.5,271.5 Z"/></g>
<g><path style="opacity:1" fill="#747474" d="M 321.5,277.5 C 321.5,278.833 320.833,279.5 319.5,279.5C 319.5,278.167 320.167,277.5 321.5,277.5 Z"/></g>
<g><path style="opacity:1" fill="#9c9c9c" d="M 358.5,274.5 C 357.931,277.335 356.264,279.001 353.5,279.5C 354.833,277.5 356.5,275.833 358.5,274.5 Z"/></g>
<g><path style="opacity:1" fill="#1f1f1f" d="M 165.5,260.5 C 185.45,262.13 205.45,262.963 225.5,263C 226.328,263.915 227.328,264.581 228.5,265C 229.655,277.424 229.821,289.924 229,302.5C 228.295,306.665 227.461,310.665 226.5,314.5C 226.83,297.991 226.496,281.658 225.5,265.5C 225.167,265.5 224.833,265.5 224.5,265.5C 217.412,263.761 210.079,263.094 202.5,263.5C 198.5,263.5 194.5,263.5 190.5,263.5C 184.833,263.5 179.167,263.5 173.5,263.5C 170.687,262.918 168.02,261.918 165.5,260.5 Z"/></g>
<g><path style="opacity:1" fill="#737373" d="M 353.5,279.5 C 353.144,281.19 352.144,282.19 350.5,282.5C 350.5,280.5 351.5,279.5 353.5,279.5 Z"/></g>
<g><path style="opacity:1" fill="#a0a0a0" d="M 350.5,283.5 C 349.811,286.189 348.144,287.856 345.5,288.5C 346.942,287.18 347.608,285.514 347.5,283.5C 348.5,283.5 349.5,283.5 350.5,283.5 Z"/></g>
<g><path style="opacity:1" fill="#888888" d="M 341.5,291.5 C 341.715,293.179 341.048,294.179 339.5,294.5C 339.427,292.973 340.094,291.973 341.5,291.5 Z"/></g>
<g><path style="opacity:1" fill="#464646" d="M 310.5,290.5 C 310.307,294.566 310.64,298.566 311.5,302.5C 309.012,300.944 308.012,298.611 308.5,295.5C 308.556,293.36 309.223,291.694 310.5,290.5 Z"/></g>
<g><path style="opacity:1" fill="#818181" d="M 339.5,294.5 C 339.5,296.5 338.5,297.5 336.5,297.5C 336.856,295.81 337.856,294.81 339.5,294.5 Z"/></g>
<g><path style="opacity:1" fill="#8b8b8b" d="M 336.5,297.5 C 335.588,299.595 334.421,301.595 333,303.5C 332.329,304.252 331.496,304.586 330.5,304.5C 331.566,301.316 333.566,298.982 336.5,297.5 Z"/></g>
<g><path style="opacity:1" fill="#b6b6b6" d="M 225.5,265.5 C 226.496,281.658 226.83,297.991 226.5,314.5C 226.5,322.833 226.5,331.167 226.5,339.5C 235.833,339.5 245.167,339.5 254.5,339.5C 244.681,340.494 234.681,340.827 224.5,340.5C 224.5,324.833 224.5,309.167 224.5,293.5C 225.494,284.348 225.827,275.015 225.5,265.5 Z"/></g>
<g><path style="opacity:1" fill="#454545" d="M 313.5,304.5 C 317.064,306.968 321.064,307.968 325.5,307.5C 323.034,308.634 320.367,308.801 317.5,308C 315.45,307.584 314.116,306.417 313.5,304.5 Z"/></g>
<g><path style="opacity:1" fill="#afafaf" d="M 330.5,304.5 C 330.5,305.5 330.5,306.5 330.5,307.5C 329.5,307.5 328.5,307.5 327.5,307.5C 327.5,305.5 328.5,304.5 330.5,304.5 Z"/></g>
</svg>
