<?xml version="1.0" encoding="UTF-8"?>
<!DOCTYPE svg PUBLIC "-//W3C//DTD SVG 1.1//EN" "http://www.w3.org/Graphics/SVG/1.1/DTD/svg11.dtd">
<svg xmlns="http://www.w3.org/2000/svg" version="1.1" width="500px" height="500px" style="shape-rendering:geometricPrecision; text-rendering:geometricPrecision; image-rendering:optimizeQuality; fill-rule:evenodd; clip-rule:evenodd" xmlns:xlink="http://www.w3.org/1999/xlink">
<g><path style="opacity:1" fill="#fefefe" d="M -0.5,-0.5 C 166.167,-0.5 332.833,-0.5 499.5,-0.5C 499.5,166.167 499.5,332.833 499.5,499.5C 424.167,499.5 348.833,499.5 273.5,499.5C 274.472,474.199 274.805,448.866 274.5,423.5C 274.169,396.328 274.502,369.328 275.5,342.5C 283.632,350.131 291.632,357.964 299.5,366C 314.694,380.196 327.194,378.03 337,359.5C 337.667,356.5 337.667,353.5 337,350.5C 335.392,347.228 333.392,344.228 331,341.5C 308.167,319.333 285.333,297.167 262.5,275C 254.949,268.556 246.949,267.889 238.5,273C 213.695,296.805 189.195,320.972 165,345.5C 160.342,352.128 160.342,358.795 165,365.5C 173.77,376.991 183.936,378.491 195.5,370C 205.333,360.167 215.167,350.333 225,340.5C 225.976,393.496 226.476,446.496 226.5,499.5C 150.833,499.5 75.1667,499.5 -0.5,499.5C -0.5,332.833 -0.5,166.167 -0.5,-0.5 Z"/></g>
<g><path style="opacity:1" fill="#010101" d="M 275.5,342.5 C 275.217,341.711 274.717,341.044 274,340.5C 273.17,368.336 273.336,396.003 274.5,423.5C 274.805,448.866 274.472,474.199 273.5,499.5C 257.833,499.5 242.167,499.5 226.5,499.5C 226.476,446.496 225.976,393.496 225,340.5C 215.167,350.333 205.333,360.167 195.5,370C 183.936,378.491 173.77,376.991 165,365.5C 160.342,358.795 160.342,352.128 165,345.5C 189.195,320.972 213.695,296.805 238.5,273C 246.949,267.889 254.949,268.556 262.5,275C 285.333,297.167 308.167,319.333 331,341.5C 333.392,344.228 335.392,347.228 337,350.5C 337.667,353.5 337.667,356.5 337,359.5C 327.194,378.03 314.694,380.196 299.5,366C 291.632,357.964 283.632,350.131 275.5,342.5 Z"/></g>
<g><path style="opacity:1" fill="#bcbcbc" d="M 275.5,342.5 C 274.502,369.328 274.169,396.328 274.5,423.5C 273.336,396.003 273.17,368.336 274,340.5C 274.717,341.044 275.217,341.711 275.5,342.5 Z"/></g>
</svg>
