<?xml version="1.0" encoding="UTF-8"?>
<!DOCTYPE svg PUBLIC "-//W3C//DTD SVG 1.1//EN" "http://www.w3.org/Graphics/SVG/1.1/DTD/svg11.dtd">
<svg xmlns="http://www.w3.org/2000/svg" version="1.1" width="500px" height="500px" style="shape-rendering:geometricPrecision; text-rendering:geometricPrecision; image-rendering:optimizeQuality; fill-rule:evenodd; clip-rule:evenodd" xmlns:xlink="http://www.w3.org/1999/xlink">
<g><path style="opacity:1" fill="#fefefe" d="M -0.5,-0.5 C 166.167,-0.5 332.833,-0.5 499.5,-0.5C 499.5,166.167 499.5,332.833 499.5,499.5C 430.833,499.5 362.167,499.5 293.5,499.5C 293.667,411.833 293.5,324.166 293,236.5C 292.802,234.618 292.302,232.952 291.5,231.5C 291.5,229.5 291.5,227.5 291.5,225.5C 291.59,222.848 290.924,220.515 289.5,218.5C 289.116,213.138 287.783,208.138 285.5,203.5C 284.566,202.432 284.232,201.099 284.5,199.5C 283.94,197.199 283.44,194.866 283,192.5C 282.617,191.944 282.117,191.611 281.5,191.5C 281.5,191.167 281.5,190.833 281.5,190.5C 281.204,188.597 280.537,186.93 279.5,185.5C 279.88,183.302 279.213,181.635 277.5,180.5C 277.5,180.167 277.5,179.833 277.5,179.5C 277.245,177.033 276.245,175.033 274.5,173.5C 274.245,171.033 273.245,169.033 271.5,167.5C 271.245,165.033 270.245,163.033 268.5,161.5C 267.011,159.355 266.011,157.022 265.5,154.5C 264.864,152.205 263.531,150.539 261.5,149.5C 257.913,143.905 253.913,138.572 249.5,133.5C 248.243,130.573 246.243,128.239 243.5,126.5C 242.5,125.167 241.5,123.833 240.5,122.5C 240.5,120.5 239.5,119.5 237.5,119.5C 236.089,117.086 234.089,115.419 231.5,114.5C 226.253,107.583 220.253,101.249 213.5,95.5C 221.104,93.6933 229.104,92.86 237.5,93C 238.056,92.6174 238.389,92.1174 238.5,91.5C 239.492,91.6716 240.158,91.3382 240.5,90.5C 241.29,89.5987 242.29,88.9321 243.5,88.5C 244.117,88.3893 244.617,88.056 245,87.5C 245.167,85.8333 245.333,84.1667 245.5,82.5C 245.444,80.3603 244.777,78.6936 243.5,77.5C 243.106,75.2901 241.773,73.9568 239.5,73.5C 226.673,72.3398 213.673,72.1731 200.5,73C 193.754,72.8689 187.421,73.7023 181.5,75.5C 180.5,75.8333 179.833,76.5 179.5,77.5C 178.272,78.3065 177.272,79.3065 176.5,80.5C 175.338,99.3289 175.171,118.329 176,137.5C 176.383,138.056 176.883,138.389 177.5,138.5C 177.81,140.144 178.81,141.144 180.5,141.5C 181.514,142.765 183.014,143.431 185,143.5C 189.359,143.57 192.859,141.903 195.5,138.5C 196.167,129.167 196.833,119.833 197.5,110.5C 199.833,112.5 202.167,114.5 204.5,116.5C 206.569,119.573 209.236,121.906 212.5,123.5C 213.585,125.587 215.251,126.92 217.5,127.5C 217.238,128.978 217.571,130.311 218.5,131.5C 220.31,133.531 222.31,135.198 224.5,136.5C 225.08,138.749 226.413,140.415 228.5,141.5C 229.167,141.833 229.833,142.167 230.5,142.5C 230.342,145.522 231.675,147.522 234.5,148.5C 235.5,148.833 236.167,149.5 236.5,150.5C 236.738,152.404 237.738,153.738 239.5,154.5C 241.326,156.147 242.66,158.147 243.5,160.5C 243.427,162.027 244.094,163.027 245.5,163.5C 248.258,166.678 250.258,170.345 251.5,174.5C 251.343,175.873 251.51,177.207 252,178.5C 253.641,180.84 255.141,183.173 256.5,185.5C 258.568,187.979 259.901,190.979 260.5,194.5C 260.752,198.327 262.085,201.66 264.5,204.5C 264.5,204.833 264.5,205.167 264.5,205.5C 264.41,208.152 265.076,210.485 266.5,212.5C 267.531,214.961 268.198,217.627 268.5,220.5C 268.5,221.833 268.5,223.167 268.5,224.5C 269.184,231.809 269.684,239.142 270,246.5C 270.5,330.833 270.667,415.166 270.5,499.5C 180.167,499.5 89.8333,499.5 -0.5,499.5C -0.5,332.833 -0.5,166.167 -0.5,-0.5 Z"/></g>
<g><path style="opacity:1" fill="#a9a9a9" d="M 239.5,73.5 C 221.83,73.6779 204.163,74.0112 186.5,74.5C 184.708,74.366 183.042,74.6993 181.5,75.5C 187.421,73.7023 193.754,72.8689 200.5,73C 213.673,72.1731 226.673,72.3398 239.5,73.5 Z"/></g>
<g><path style="opacity:1" fill="#020202" d="M 239.5,73.5 C 241.773,73.9568 243.106,75.2901 243.5,77.5C 243.5,81.1667 243.5,84.8333 243.5,88.5C 242.29,88.9321 241.29,89.5987 240.5,90.5C 230.843,91.0789 221.176,91.5789 211.5,92C 210.2,93.5788 210.534,94.7455 212.5,95.5C 212.833,95.5 213.167,95.5 213.5,95.5C 220.253,101.249 226.253,107.583 231.5,114.5C 232.911,116.914 234.911,118.581 237.5,119.5C 238.167,120.833 239.167,121.833 240.5,122.5C 241.5,123.833 242.5,125.167 243.5,126.5C 244.757,129.427 246.757,131.761 249.5,133.5C 253.913,138.572 257.913,143.905 261.5,149.5C 262.124,151.754 263.457,153.421 265.5,154.5C 266.011,157.022 267.011,159.355 268.5,161.5C 268.755,163.967 269.755,165.967 271.5,167.5C 271.755,169.967 272.755,171.967 274.5,173.5C 274.755,175.967 275.755,177.967 277.5,179.5C 277.5,179.833 277.5,180.167 277.5,180.5C 277.796,182.403 278.463,184.07 279.5,185.5C 279.12,187.698 279.787,189.365 281.5,190.5C 281.5,190.833 281.5,191.167 281.5,191.5C 281.345,194.716 282.345,197.383 284.5,199.5C 284.232,201.099 284.566,202.432 285.5,203.5C 286.379,209.08 287.712,214.413 289.5,219.5C 289.5,220.5 289.5,221.5 289.5,222.5C 290.127,228.145 290.627,233.811 291,239.5C 291.5,326.166 291.667,412.833 291.5,499.5C 285.167,499.5 278.833,499.5 272.5,499.5C 272.667,411.166 272.5,322.833 272,234.5C 271.722,233.584 271.222,232.918 270.5,232.5C 270.5,230.833 270.5,229.167 270.5,227.5C 270.59,224.848 269.924,222.515 268.5,220.5C 268.198,217.627 267.531,214.961 266.5,212.5C 266.59,209.848 265.924,207.515 264.5,205.5C 264.5,205.167 264.5,204.833 264.5,204.5C 264.248,200.673 262.915,197.34 260.5,194.5C 259.901,190.979 258.568,187.979 256.5,185.5C 256.32,181.082 254.654,177.415 251.5,174.5C 250.258,170.345 248.258,166.678 245.5,163.5C 245.573,161.973 244.906,160.973 243.5,160.5C 242.66,158.147 241.326,156.147 239.5,154.5C 239.262,152.596 238.262,151.262 236.5,150.5C 236.167,149.5 235.5,148.833 234.5,148.5C 233.551,146.223 232.218,144.223 230.5,142.5C 229.833,142.167 229.167,141.833 228.5,141.5C 227.92,139.251 226.587,137.585 224.5,136.5C 222.518,133.19 220.185,130.19 217.5,127.5C 215.251,126.92 213.585,125.587 212.5,123.5C 210.431,120.427 207.764,118.094 204.5,116.5C 202.167,114.5 199.833,112.5 197.5,110.5C 197.631,109.624 197.298,108.957 196.5,108.5C 195.501,118.478 195.168,128.478 195.5,138.5C 192.859,141.903 189.359,143.57 185,143.5C 183.014,143.431 181.514,142.765 180.5,141.5C 179.281,139.364 178.448,137.031 178,134.5C 177.333,117.167 177.333,99.8333 178,82.5C 178.608,80.8455 179.108,79.1789 179.5,77.5C 182.157,77.0652 184.491,76.0652 186.5,74.5C 204.163,74.0112 221.83,73.6779 239.5,73.5 Z"/></g>
<g><path style="opacity:1" fill="#595959" d="M 186.5,74.5 C 184.491,76.0652 182.157,77.0652 179.5,77.5C 179.833,76.5 180.5,75.8333 181.5,75.5C 183.042,74.6993 184.708,74.366 186.5,74.5 Z"/></g>
<g><path style="opacity:1" fill="#9d9d9d" d="M 243.5,77.5 C 244.777,78.6936 245.444,80.3603 245.5,82.5C 245.333,84.1667 245.167,85.8333 245,87.5C 244.617,88.056 244.117,88.3893 243.5,88.5C 243.5,84.8333 243.5,81.1667 243.5,77.5 Z"/></g>
<g><path style="opacity:1" fill="#1b1b1b" d="M 179.5,77.5 C 179.108,79.1789 178.608,80.8455 178,82.5C 177.333,99.8333 177.333,117.167 178,134.5C 178.448,137.031 179.281,139.364 180.5,141.5C 178.81,141.144 177.81,140.144 177.5,138.5C 176.525,119.213 176.191,99.8796 176.5,80.5C 177.272,79.3065 178.272,78.3065 179.5,77.5 Z"/></g>
<g><path style="opacity:1" fill="#2c2c2c" d="M 240.5,90.5 C 240.158,91.3382 239.492,91.6716 238.5,91.5C 229.887,92.4421 221.221,92.7754 212.5,92.5C 212.5,93.5 212.5,94.5 212.5,95.5C 210.534,94.7455 210.2,93.5788 211.5,92C 221.176,91.5789 230.843,91.0789 240.5,90.5 Z"/></g>
<g><path style="opacity:1" fill="#bebebe" d="M 238.5,91.5 C 238.389,92.1174 238.056,92.6174 237.5,93C 229.104,92.86 221.104,93.6933 213.5,95.5C 213.167,95.5 212.833,95.5 212.5,95.5C 212.5,94.5 212.5,93.5 212.5,92.5C 221.221,92.7754 229.887,92.4421 238.5,91.5 Z"/></g>
<g><path style="opacity:1" fill="#898989" d="M 197.5,110.5 C 196.833,119.833 196.167,129.167 195.5,138.5C 195.168,128.478 195.501,118.478 196.5,108.5C 197.298,108.957 197.631,109.624 197.5,110.5 Z"/></g>
<g><path style="opacity:1" fill="#6d6d6d" d="M 231.5,114.5 C 234.089,115.419 236.089,117.086 237.5,119.5C 234.911,118.581 232.911,116.914 231.5,114.5 Z"/></g>
<g><path style="opacity:1" fill="#494949" d="M 204.5,116.5 C 207.764,118.094 210.431,120.427 212.5,123.5C 209.236,121.906 206.569,119.573 204.5,116.5 Z"/></g>
<g><path style="opacity:1" fill="#9e9e9e" d="M 237.5,119.5 C 239.5,119.5 240.5,120.5 240.5,122.5C 239.167,121.833 238.167,120.833 237.5,119.5 Z"/></g>
<g><path style="opacity:1" fill="#aaaaaa" d="M 176.5,80.5 C 176.191,99.8796 176.525,119.213 177.5,138.5C 176.883,138.389 176.383,138.056 176,137.5C 175.171,118.329 175.338,99.3289 176.5,80.5 Z"/></g>
<g><path style="opacity:1" fill="#3f3f3f" d="M 243.5,126.5 C 246.243,128.239 248.243,130.573 249.5,133.5C 246.757,131.761 244.757,129.427 243.5,126.5 Z"/></g>
<g><path style="opacity:1" fill="#9f9f9f" d="M 217.5,127.5 C 220.185,130.19 222.518,133.19 224.5,136.5C 222.31,135.198 220.31,133.531 218.5,131.5C 217.571,130.311 217.238,128.978 217.5,127.5 Z"/></g>
<g><path style="opacity:1" fill="#ababab" d="M 224.5,136.5 C 226.587,137.585 227.92,139.251 228.5,141.5C 226.413,140.415 225.08,138.749 224.5,136.5 Z"/></g>
<g><path style="opacity:1" fill="#b6b6b6" d="M 230.5,142.5 C 232.218,144.223 233.551,146.223 234.5,148.5C 231.675,147.522 230.342,145.522 230.5,142.5 Z"/></g>
<g><path style="opacity:1" fill="#acacac" d="M 261.5,149.5 C 263.531,150.539 264.864,152.205 265.5,154.5C 263.457,153.421 262.124,151.754 261.5,149.5 Z"/></g>
<g><path style="opacity:1" fill="#9f9f9f" d="M 236.5,150.5 C 238.262,151.262 239.262,152.596 239.5,154.5C 237.738,153.738 236.738,152.404 236.5,150.5 Z"/></g>
<g><path style="opacity:1" fill="#959595" d="M 243.5,160.5 C 244.906,160.973 245.573,161.973 245.5,163.5C 244.094,163.027 243.427,162.027 243.5,160.5 Z"/></g>
<g><path style="opacity:1" fill="#545454" d="M 268.5,161.5 C 270.245,163.033 271.245,165.033 271.5,167.5C 269.755,165.967 268.755,163.967 268.5,161.5 Z"/></g>
<g><path style="opacity:1" fill="#515151" d="M 271.5,167.5 C 273.245,169.033 274.245,171.033 274.5,173.5C 272.755,171.967 271.755,169.967 271.5,167.5 Z"/></g>
<g><path style="opacity:1" fill="#b6b6b6" d="M 251.5,174.5 C 254.654,177.415 256.32,181.082 256.5,185.5C 255.141,183.173 253.641,180.84 252,178.5C 251.51,177.207 251.343,175.873 251.5,174.5 Z"/></g>
<g><path style="opacity:1" fill="#737373" d="M 274.5,173.5 C 276.245,175.033 277.245,177.033 277.5,179.5C 275.755,177.967 274.755,175.967 274.5,173.5 Z"/></g>
<g><path style="opacity:1" fill="#868686" d="M 277.5,180.5 C 279.213,181.635 279.88,183.302 279.5,185.5C 278.463,184.07 277.796,182.403 277.5,180.5 Z"/></g>
<g><path style="opacity:1" fill="#515151" d="M 279.5,185.5 C 280.537,186.93 281.204,188.597 281.5,190.5C 279.787,189.365 279.12,187.698 279.5,185.5 Z"/></g>
<g><path style="opacity:1" fill="#626262" d="M 281.5,191.5 C 282.117,191.611 282.617,191.944 283,192.5C 283.44,194.866 283.94,197.199 284.5,199.5C 282.345,197.383 281.345,194.716 281.5,191.5 Z"/></g>
<g><path style="opacity:1" fill="#929292" d="M 260.5,194.5 C 262.915,197.34 264.248,200.673 264.5,204.5C 262.085,201.66 260.752,198.327 260.5,194.5 Z"/></g>
<g><path style="opacity:1" fill="#929292" d="M 264.5,205.5 C 265.924,207.515 266.59,209.848 266.5,212.5C 265.076,210.485 264.41,208.152 264.5,205.5 Z"/></g>
<g><path style="opacity:1" fill="#636363" d="M 285.5,203.5 C 287.783,208.138 289.116,213.138 289.5,218.5C 289.5,218.833 289.5,219.167 289.5,219.5C 287.712,214.413 286.379,209.08 285.5,203.5 Z"/></g>
<g><path style="opacity:1" fill="#b6b6b6" d="M 289.5,218.5 C 290.924,220.515 291.59,222.848 291.5,225.5C 290.833,224.5 290.167,223.5 289.5,222.5C 289.5,221.5 289.5,220.5 289.5,219.5C 289.5,219.167 289.5,218.833 289.5,218.5 Z"/></g>
<g><path style="opacity:1" fill="#595959" d="M 268.5,220.5 C 269.924,222.515 270.59,224.848 270.5,227.5C 269.833,226.5 269.167,225.5 268.5,224.5C 268.5,223.167 268.5,221.833 268.5,220.5 Z"/></g>
<g><path style="opacity:1" fill="#424242" d="M 289.5,222.5 C 290.167,223.5 290.833,224.5 291.5,225.5C 291.5,227.5 291.5,229.5 291.5,231.5C 292.485,320.818 292.818,410.151 292.5,499.5C 292.167,499.5 291.833,499.5 291.5,499.5C 291.667,412.833 291.5,326.166 291,239.5C 290.627,233.811 290.127,228.145 289.5,222.5 Z"/></g>
<g><path style="opacity:1" fill="#d0d0d0" d="M 268.5,224.5 C 269.167,225.5 269.833,226.5 270.5,227.5C 270.5,229.167 270.5,230.833 270.5,232.5C 271.49,321.478 271.823,410.478 271.5,499.5C 271.167,499.5 270.833,499.5 270.5,499.5C 270.667,415.166 270.5,330.833 270,246.5C 269.684,239.142 269.184,231.809 268.5,224.5 Z"/></g>
<g><path style="opacity:1" fill="#b7b7b7" d="M 291.5,231.5 C 292.302,232.952 292.802,234.618 293,236.5C 293.5,324.166 293.667,411.833 293.5,499.5C 293.167,499.5 292.833,499.5 292.5,499.5C 292.818,410.151 292.485,320.818 291.5,231.5 Z"/></g>
<g><path style="opacity:1" fill="#424242" d="M 270.5,232.5 C 271.222,232.918 271.722,233.584 272,234.5C 272.5,322.833 272.667,411.166 272.5,499.5C 272.167,499.5 271.833,499.5 271.5,499.5C 271.823,410.478 271.49,321.478 270.5,232.5 Z"/></g>
</svg>
