<?xml version="1.0" standalone="no"?>
<!DOCTYPE svg PUBLIC "-//W3C//DTD SVG 20010904//EN"
 "http://www.w3.org/TR/2001/REC-SVG-20010904/DTD/svg10.dtd">
<svg version="1.0" xmlns="http://www.w3.org/2000/svg"
 width="500.000000pt" height="500.000000pt" viewBox="0 0 500.000000 500.000000"
 preserveAspectRatio="xMidYMid meet">

<g transform="translate(0.000000,500.000000) scale(0.100000,-0.100000)"
fill="#000000" stroke="none">
<path d="M2090 3456 c-19 -13 -159 -150 -310 -305 -299 -306 -314 -326 -292
-398 12 -38 54 -83 454 -491 153 -156 181 -173 250 -152 24 7 56 28 79 53 34
37 39 48 39 93 0 63 -12 79 -182 252 l-121 122 194 0 c107 0 221 -5 254 -10
61 -10 245 -76 245 -88 0 -4 12 -13 28 -19 54 -25 157 -124 218 -211 135 -194
196 -399 198 -667 1 -87 5 -153 11 -157 6 -4 74 -8 152 -8 l143 0 6 26 c19 74
-24 504 -55 561 -6 10 -20 49 -32 87 -20 64 -66 169 -89 206 -6 8 -21 35 -34
60 -37 67 -148 201 -219 263 -147 127 -278 192 -512 253 -16 4 -138 10 -270
13 l-239 6 144 148 c157 161 177 193 160 256 -10 36 -65 98 -107 120 -33 17
-74 12 -113 -13z"/>
</g>
</svg>
