<?xml version="1.0" standalone="no"?>
<!DOCTYPE svg PUBLIC "-//W3C//DTD SVG 20010904//EN"
 "http://www.w3.org/TR/2001/REC-SVG-20010904/DTD/svg10.dtd">
<svg version="1.0" xmlns="http://www.w3.org/2000/svg"
 width="1000.000000pt" height="1000.000000pt" viewBox="0 0 1000.000000 1000.000000"
 preserveAspectRatio="xMidYMid meet">

<g transform="translate(0.000000,1000.000000) scale(0.100000,-0.100000)"
fill="#000000" stroke="none">
<path d="M4525 8534 c-22 -3 -218 -13 -437 -23 -346 -17 -402 -22 -441 -39
-48 -21 -87 -67 -106 -121 -12 -37 -13 -408 -2 -857 l6 -261 29 -37 c40 -53
83 -69 177 -64 83 3 113 17 153 72 20 26 21 42 24 319 l2 292 108 -103 c59
-57 150 -140 201 -185 118 -102 122 -106 258 -257 322 -360 498 -626 650 -983
150 -350 208 -547 265 -897 l22 -135 3 -2627 3 -2628 210 0 210 0 3 2353 c1
1293 2 2449 1 2567 -2 479 -81 872 -284 1423 -42 115 -273 579 -297 596 -4 3
-32 42 -62 86 -64 94 -242 335 -284 385 -104 123 -603 627 -679 685 l-39 30
163 7 c305 14 405 25 445 49 97 60 98 261 2 330 -31 22 -45 24 -149 25 -63 1
-133 0 -155 -2z"/>
</g>
</svg>
