<?xml version="1.0" standalone="no"?>
<!DOCTYPE svg PUBLIC "-//W3C//DTD SVG 20010904//EN"
 "http://www.w3.org/TR/2001/REC-SVG-20010904/DTD/svg10.dtd">
<svg version="1.0" xmlns="http://www.w3.org/2000/svg"
 width="500.000000pt" height="500.000000pt" viewBox="0 0 500.000000 500.000000"
 preserveAspectRatio="xMidYMid meet">

<g transform="translate(0.000000,500.000000) scale(0.100000,-0.100000)"
fill="#000000" stroke="none">
<path d="M2505 4241 c-16 -11 -132 -120 -258 -243 l-228 -223 1 -47 c0 -39 5
-52 33 -82 36 -38 73 -52 112 -42 14 4 81 58 148 122 l122 115 3 -274 c1 -150
-1 -310 -5 -356 l-8 -82 -65 -22 c-97 -33 -157 -72 -240 -156 -79 -80 -136
-176 -162 -275 l-13 -49 -380 7 c-209 4 -382 10 -384 12 -2 2 47 57 111 121
66 68 117 129 119 143 14 72 -50 150 -124 150 -42 0 -44 -1 -283 -243 -245
-247 -258 -264 -246 -323 7 -38 455 -500 498 -514 45 -15 78 -4 119 41 28 31
35 47 35 79 0 38 -8 49 -116 165 -64 69 -115 127 -113 129 2 2 157 0 344 -5
187 -4 359 -8 381 -8 41 -1 42 -2 54 -48 22 -89 90 -203 163 -275 72 -72 182
-140 258 -159 l46 -12 7 -66 c3 -36 6 -207 6 -380 l0 -314 -119 116 c-122 120
-157 143 -200 132 -65 -16 -118 -89 -106 -145 4 -20 75 -97 233 -254 125 -124
236 -232 247 -240 11 -9 39 -16 63 -16 42 0 47 4 210 159 92 87 204 197 250
244 76 78 82 88 82 126 0 33 -7 49 -36 80 -40 46 -78 58 -123 39 -17 -7 -79
-61 -139 -120 -60 -60 -112 -108 -116 -108 -3 0 -5 167 -4 371 l3 371 55 17
c191 59 344 210 411 405 l28 81 393 3 392 2 -29 -32 c-17 -18 -72 -76 -122
-129 -78 -80 -93 -101 -93 -128 0 -72 58 -131 132 -131 l43 -1 223 228 c123
125 232 242 243 258 22 34 24 70 6 101 -25 46 -453 477 -485 491 -79 33 -179
-57 -158 -143 4 -14 56 -77 116 -141 61 -63 110 -119 110 -124 0 -11 -203 -12
-537 -2 l-240 6 -18 56 c-28 92 -76 172 -147 246 -74 78 -152 130 -242 160
-34 11 -67 24 -73 28 -10 6 -13 89 -13 358 0 307 5 379 22 342 2 -5 55 -59
119 -120 108 -105 119 -113 155 -113 77 0 148 91 123 158 -11 29 -292 318
-422 433 -86 77 -116 85 -172 50z m241 -1345 c123 -61 210 -181 235 -324 31
-173 -75 -379 -232 -456 -172 -83 -362 -46 -497 99 -73 78 -102 146 -109 261
-9 140 29 247 121 340 92 92 187 126 326 119 72 -4 96 -10 156 -39z"/>
</g>
</svg>