<?xml version="1.0" standalone="no"?>
<!DOCTYPE svg PUBLIC "-//W3C//DTD SVG 20010904//EN"
 "http://www.w3.org/TR/2001/REC-SVG-20010904/DTD/svg10.dtd">
<svg version="1.0" xmlns="http://www.w3.org/2000/svg"
 width="1000.000000pt" height="1000.000000pt" viewBox="0 0 1000.000000 1000.000000"
 preserveAspectRatio="xMidYMid meet">

<g transform="translate(0.000000,1000.000000) scale(0.100000,-0.100000)"
fill="#000000" stroke="none">
<path d="M5855 8526 c-42 -18 -83 -69 -91 -112 -3 -19 -4 -64 -2 -99 5 -78 25
-111 89 -142 39 -20 71 -24 308 -35 l263 -13 -196 -184 c-108 -101 -196 -187
-196 -191 0 -5 -60 -70 -132 -147 -308 -321 -453 -519 -645 -878 -177 -330
-257 -536 -343 -875 -50 -201 -64 -279 -95 -521 l-25 -200 0 -1837 c0 -1010 3
-2164 7 -2564 l6 -728 207 0 207 0 -1 2603 -1 2602 28 178 c47 307 111 543
219 817 69 175 138 306 267 515 167 268 229 347 459 589 116 122 164 168 428
412 l109 102 0 -287 0 -287 27 -41 c38 -58 83 -76 178 -71 93 4 123 21 157 89
22 44 23 48 25 585 l3 540 -30 49 c-51 83 -87 95 -317 106 -106 5 -324 16
-483 24 -349 18 -391 18 -430 1z"/>
</g>
</svg>
