<?xml version="1.0" standalone="no"?>
<!DOCTYPE svg PUBLIC "-//W3C//DTD SVG 20010904//EN"
 "http://www.w3.org/TR/2001/REC-SVG-20010904/DTD/svg10.dtd">
<svg version="1.0" xmlns="http://www.w3.org/2000/svg"
 width="500.000000pt" height="500.000000pt" viewBox="0 0 500.000000 500.000000"
 preserveAspectRatio="xMidYMid meet">

<g transform="translate(0.000000,500.000000) scale(0.100000,-0.100000)"
fill="#000000" stroke="none">
<path d="M2390 4372 c-45 -31 -602 -586 -616 -614 -30 -58 -9 -134 52 -188 41
-36 72 -45 121 -35 30 5 64 33 183 151 l147 144 6 -172 c4 -95 7 -440 7 -766
l0 -594 -52 47 c-72 65 -125 100 -227 150 -159 79 -197 87 -450 92 l-223 5
109 112 c61 61 120 124 131 140 74 99 -56 249 -166 192 -24 -13 -503 -495
-523 -528 -5 -7 -9 -33 -9 -57 0 -43 3 -48 117 -165 404 -416 415 -426 465
-426 59 0 138 77 138 134 -1 45 -13 61 -143 200 l-119 126 154 0 c256 0 399
-43 534 -162 112 -98 181 -205 240 -373 l28 -80 4 -852 3 -853 175 0 174 0 0
861 0 860 26 77 c73 220 250 416 430 476 103 35 203 48 356 44 l137 -3 -87
-90 c-167 -173 -172 -180 -172 -232 0 -39 5 -50 38 -83 44 -44 96 -59 141 -40
28 11 489 477 523 529 26 39 22 82 -11 127 -16 21 -135 146 -264 278 l-235
239 -50 5 c-44 4 -52 1 -87 -29 -21 -19 -44 -48 -51 -66 -26 -61 -11 -87 128
-229 l129 -132 -223 -5 c-203 -4 -230 -7 -298 -29 -152 -51 -275 -120 -376
-211 -29 -26 -55 -47 -58 -47 -3 0 -6 342 -6 760 0 418 3 760 8 760 4 0 70
-61 146 -135 76 -73 152 -139 167 -146 43 -17 91 -3 142 41 51 45 72 94 63
145 -7 34 -124 154 -537 553 -116 111 -117 112 -165 112 -30 0 -59 -7 -74 -18z"/>
</g>
</svg>
