<?xml version="1.0" standalone="no"?>
<!DOCTYPE svg PUBLIC "-//W3C//DTD SVG 20010904//EN"
 "http://www.w3.org/TR/2001/REC-SVG-20010904/DTD/svg10.dtd">
<svg version="1.0" xmlns="http://www.w3.org/2000/svg"
 width="500.000000pt" height="500.000000pt" viewBox="0 0 500.000000 500.000000"
 preserveAspectRatio="xMidYMid meet">

<g transform="translate(0.000000,500.000000) scale(0.100000,-0.100000)"
fill="#000000" stroke="none">
<path d="M2926 3630 c-42 -13 -115 -88 -126 -130 -19 -72 -1 -101 166 -271 85
-85 154 -158 154 -162 0 -4 -96 -7 -212 -7 -288 0 -421 -23 -595 -101 -456
-204 -753 -727 -753 -1325 l0 -154 169 0 169 0 5 183 c4 150 9 199 30 283 26
100 69 218 108 297 95 189 273 354 454 422 117 45 198 55 422 55 l205 0 -142
-147 c-79 -82 -151 -161 -161 -178 -12 -18 -19 -49 -19 -78 0 -43 5 -53 46
-97 57 -61 105 -79 163 -62 32 10 96 71 354 336 254 260 318 331 327 364 23
76 14 88 -323 433 -344 353 -358 364 -441 339z"/>
</g>
</svg>
