<?xml version="1.0" standalone="no"?>
<!DOCTYPE svg PUBLIC "-//W3C//DTD SVG 20010904//EN"
 "http://www.w3.org/TR/2001/REC-SVG-20010904/DTD/svg10.dtd">
<svg version="1.0" xmlns="http://www.w3.org/2000/svg"
 width="500.000000pt" height="500.000000pt" viewBox="0 0 500.000000 500.000000"
 preserveAspectRatio="xMidYMid meet">

<g transform="translate(0.000000,500.000000) scale(0.100000,-0.100000)"
fill="#000000" stroke="none">
<path d="M1613 3886 c-338 -64 -618 -308 -705 -612 -32 -114 -32 -289 1 -394
79 -257 269 -439 542 -521 69 -21 97 -23 442 -27 l367 -4 0 -529 0 -529 188 2
187 3 3 528 2 527 472 0 472 0 -166 -167 c-180 -182 -195 -207 -168 -273 18
-43 113 -127 149 -132 69 -10 92 8 433 349 180 180 335 342 343 359 19 40 19
107 1 142 -8 15 -160 172 -339 349 -347 343 -364 356 -431 333 -31 -10 -128
-97 -148 -135 -14 -24 -12 -78 2 -106 7 -13 85 -97 173 -186 l161 -163 -476 0
-476 0 -5 293 c-5 321 -9 353 -71 482 -90 190 -263 333 -476 395 -96 28 -365
37 -477 16z m422 -389 c105 -49 179 -140 211 -262 10 -35 14 -122 14 -292 l0
-243 -319 0 c-175 0 -342 5 -371 10 -265 50 -392 310 -269 552 33 65 143 168
220 205 104 51 165 63 319 60 123 -2 140 -5 195 -30z"/>
</g>
</svg>
