<?xml version="1.0" standalone="no"?>
<!DOCTYPE svg PUBLIC "-//W3C//DTD SVG 20010904//EN"
 "http://www.w3.org/TR/2001/REC-SVG-20010904/DTD/svg10.dtd">
<svg version="1.0" xmlns="http://www.w3.org/2000/svg"
 width="500.000000pt" height="500.000000pt" viewBox="0 0 500.000000 500.000000"
 preserveAspectRatio="xMidYMid meet">

<g transform="translate(0.000000,500.000000) scale(0.100000,-0.100000)"
fill="#000000" stroke="none">
<path d="M2935 3939 c-272 -37 -470 -198 -551 -449 -15 -47 -19 -107 -23 -390
l-6 -335 -442 -3 c-275 -1 -443 1 -443 7 0 6 70 82 155 170 l155 160 0 49 c0
45 -4 55 -46 101 -26 29 -59 58 -75 66 -38 20 -88 19 -119 -3 -38 -26 -636
-634 -649 -659 -15 -30 -14 -79 3 -111 8 -15 158 -170 333 -345 237 -235 325
-317 343 -318 76 -4 113 13 163 72 79 92 66 125 -118 309 -80 80 -145 148
-145 152 0 5 200 8 445 8 l445 0 2 -622 3 -623 173 -3 172 -2 0 625 0 625 383
0 c217 0 410 5 446 11 260 42 451 200 542 449 160 439 -149 935 -652 1045 -89
19 -392 28 -494 14z m486 -380 c192 -73 312 -206 339 -377 19 -115 -10 -220
-81 -297 -105 -114 -157 -125 -616 -125 l-353 0 0 288 c0 318 5 355 60 430 32
45 88 85 141 101 20 6 120 9 239 7 191 -2 210 -4 271 -27z"/>
</g>
</svg>
