<?xml version="1.0" standalone="no"?>
<!DOCTYPE svg PUBLIC "-//W3C//DTD SVG 20010904//EN"
 "http://www.w3.org/TR/2001/REC-SVG-20010904/DTD/svg10.dtd">
<svg version="1.0" xmlns="http://www.w3.org/2000/svg"
 width="500.000000pt" height="500.000000pt" viewBox="0 0 500.000000 500.000000"
 preserveAspectRatio="xMidYMid meet">

<g transform="translate(0.000000,500.000000) scale(0.100000,-0.100000)"
fill="#000000" stroke="none">
<path d="M2422 3638 c-62 -34 -761 -724 -783 -773 -34 -74 -19 -132 51 -202
62 -62 115 -81 181 -63 37 10 70 38 216 183 l173 171 1 -590 c1 -324 0 -988
-1 -1477 l-2 -887 241 0 241 0 3 693 c1 380 0 1042 -2 1470 -2 427 -1 777 3
777 4 0 78 -69 165 -154 86 -84 171 -161 188 -170 39 -20 115 -21 151 -2 63
33 132 130 132 185 0 65 -30 100 -409 468 -207 201 -390 372 -408 379 -47 20
-94 17 -141 -8z"/>
</g>
</svg>
