<?xml version="1.0" standalone="no"?>
<!DOCTYPE svg PUBLIC "-//W3C//DTD SVG 20010904//EN"
 "http://www.w3.org/TR/2001/REC-SVG-20010904/DTD/svg10.dtd">
<svg version="1.0" xmlns="http://www.w3.org/2000/svg"
 width="500.000000pt" height="500.000000pt" viewBox="0 0 500.000000 500.000000"
 preserveAspectRatio="xMidYMid meet">

<g transform="translate(0.000000,500.000000) scale(0.100000,-0.100000)"
fill="#000000" stroke="none">
<path d="M2423 2284 c-17 -9 -200 -183 -407 -387 -414 -410 -413 -409 -387
-498 14 -45 79 -122 122 -145 37 -19 113 -18 152 2 18 9 105 89 195 177 l162
161 0 -481 c0 -264 3 -622 7 -796 l6 -317 233 0 232 0 7 27 c3 14 3 373 -1
797 l-7 771 168 -164 c92 -90 183 -169 201 -177 72 -30 144 -12 206 52 74 78
86 167 30 236 -49 61 -739 726 -770 742 -39 20 -108 20 -149 0z"/>
</g>
</svg>
